<?xml version="1.0"?>

<svg fill="#FFFFFF" version="1.1" id="Layer_1" xmlns="http://www.w3.org/2000/svg" xmlns:xlink="http://www.w3.org/1999/xlink" x="0px" y="0px" viewBox="0 0 4000 4000" style="enable-background:new 0 0 4000 4000;" xml:space="preserve">


<g>
&#x9;<g>
&#x9;&#x9;<path d="M2818,3161.85H1182c-160.11,0-315.43-31.36-461.64-93.2c-70.28-29.72-138.06-66.51-201.46-109.35&#xA;&#x9;&#x9;&#x9;c-62.8-42.43-121.85-91.15-175.52-144.82c-53.67-53.67-102.39-112.72-144.82-175.52c-42.83-63.4-79.62-131.18-109.35-201.46&#xA;&#x9;&#x9;&#x9;C27.36,2291.28-4,2135.96-4,1975.85c0-160.11,31.36-315.43,93.2-461.64c29.72-70.28,66.51-138.06,109.35-201.46&#xA;&#x9;&#x9;&#x9;c42.43-62.8,91.15-121.85,144.82-175.52c53.67-53.67,112.72-102.39,175.52-144.82c63.4-42.83,131.18-79.62,201.46-109.35&#xA;&#x9;&#x9;&#x9;c146.22-61.85,301.54-93.2,461.64-93.2H2818c160.11,0,315.43,31.36,461.64,93.2c70.28,29.72,138.06,66.51,201.46,109.35&#xA;&#x9;&#x9;&#x9;c62.8,42.43,121.85,91.15,175.52,144.82c53.67,53.67,102.39,112.72,144.82,175.52c42.83,63.4,79.62,131.18,109.35,201.46&#xA;&#x9;&#x9;&#x9;c61.84,146.22,93.2,301.54,93.2,461.64c0,160.11-31.36,315.43-93.2,461.64c-29.72,70.28-66.51,138.06-109.35,201.46&#xA;&#x9;&#x9;&#x9;c-42.43,62.8-91.15,121.85-144.82,175.52s-112.72,102.39-175.52,144.82c-63.4,42.83-131.18,79.62-201.46,109.35&#xA;&#x9;&#x9;&#x9;C3133.43,3130.49,2978.11,3161.85,2818,3161.85z M1182,797.85c-649.55,0-1178,528.45-1178,1178s528.45,1178,1178,1178H2818&#xA;&#x9;&#x9;&#x9;c649.55,0,1178-528.45,1178-1178s-528.45-1178-1178-1178H1182z"></path>
&#x9;</g>
</g>
<g>
&#x9;<g>
&#x9;&#x9;<path d="M1216.9,3161.85c-153.37,0-302.16-31.37-442.22-93.23c-67.31-29.73-132.24-66.53-192.97-109.37&#xA;&#x9;&#x9;&#x9;c-60.15-42.43-116.71-91.16-168.11-144.83c-51.4-53.67-98.06-112.73-138.69-175.53c-41.02-63.4-76.25-131.18-104.71-201.45&#xA;&#x9;&#x9;&#x9;c-59.22-146.2-89.25-301.5-89.25-461.59c0-160.09,30.03-315.39,89.25-461.59c28.46-70.27,63.69-138.05,104.71-201.45&#xA;&#x9;&#x9;&#x9;c40.63-62.8,87.29-121.86,138.69-175.53c51.4-53.67,107.96-102.4,168.11-144.83c60.73-42.84,125.65-79.64,192.97-109.37&#xA;&#x9;&#x9;&#x9;c140.06-61.86,288.85-93.23,442.22-93.23c2.21,0,4,1.79,4,4s-1.79,4-4,4c-621.95,0-1127.95,528.45-1127.95,1178&#xA;&#x9;&#x9;&#x9;s506,1178,1127.95,1178c2.21,0,4,1.79,4,4S1219.11,3161.85,1216.9,3161.85z"></path>
&#x9;</g>
</g>
<g>
&#x9;<g>
&#x9;&#x9;<path d="M1251.81,3161.85c-146.64,0-288.89-31.38-422.8-93.26c-64.35-29.74-126.42-66.54-184.47-109.39&#xA;&#x9;&#x9;&#x9;c-57.5-42.44-111.56-91.17-160.69-144.85c-49.13-53.67-93.73-112.73-132.56-175.53c-39.2-63.4-72.88-131.17-100.08-201.44&#xA;&#x9;&#x9;&#x9;c-56.6-146.18-85.29-301.47-85.29-461.53s28.7-315.35,85.29-461.53c27.2-70.27,60.88-138.04,100.08-201.44&#xA;&#x9;&#x9;&#x9;c38.83-62.8,83.43-121.86,132.56-175.53c49.13-53.68,103.2-102.41,160.69-144.85c58.06-42.85,120.12-79.65,184.47-109.39&#xA;&#x9;&#x9;&#x9;c133.91-61.88,276.16-93.26,422.8-93.26c2.21,0,4,1.79,4,4s-1.79,4-4,4c-594.36,0-1077.9,528.45-1077.9,1178&#xA;&#x9;&#x9;&#x9;s483.54,1178,1077.9,1178c2.21,0,4,1.79,4,4S1254.02,3161.85,1251.81,3161.85z"></path>
&#x9;</g>
</g>
<g>
&#x9;<g>
&#x9;&#x9;<path d="M1286.72,3161.85c-139.91,0-275.63-31.39-403.39-93.29c-61.39-29.74-120.6-66.56-175.98-109.42&#xA;&#x9;&#x9;&#x9;c-54.84-42.44-106.41-91.18-153.28-144.87c-46.85-53.67-89.39-112.73-126.43-175.53c-37.39-63.39-69.5-131.16-95.44-201.42&#xA;&#x9;&#x9;&#x9;c-53.97-146.17-81.34-301.43-81.34-461.47s27.37-315.3,81.34-461.47c25.94-70.26,58.06-138.03,95.44-201.43&#xA;&#x9;&#x9;&#x9;c37.04-62.8,79.58-121.86,126.43-175.53c46.86-53.68,98.43-102.42,153.28-144.87c55.38-42.86,114.59-79.67,175.98-109.42&#xA;&#x9;&#x9;&#x9;c127.76-61.9,263.48-93.29,403.39-93.29c2.21,0,4,1.79,4,4s-1.79,4-4,4c-566.76,0-1027.85,528.45-1027.85,1178&#xA;&#x9;&#x9;&#x9;s461.09,1178,1027.85,1178c2.21,0,4,1.79,4,4S1288.93,3161.85,1286.72,3161.85z"></path>
&#x9;</g>
</g>
<g>
&#x9;<g>
&#x9;&#x9;<path d="M1321.62,3161.85c-133.18,0-262.37-31.4-383.98-93.32c-58.43-29.75-114.78-66.57-167.48-109.44&#xA;&#x9;&#x9;&#x9;c-52.19-42.45-101.26-91.19-145.86-144.88c-90.47-108.92-161.5-235.74-211.11-376.94c-51.35-146.15-77.38-301.39-77.38-461.41&#xA;&#x9;&#x9;&#x9;s26.03-315.26,77.38-461.41c49.61-141.2,120.63-268.02,211.11-376.94c44.59-53.69,93.67-102.43,145.86-144.88&#xA;&#x9;&#x9;&#x9;c52.71-42.87,109.06-79.69,167.48-109.44c121.61-61.92,250.8-93.32,383.98-93.32c2.21,0,4,1.79,4,4s-1.79,4-4,4&#xA;&#x9;&#x9;&#x9;c-539.16,0-977.81,528.45-977.81,1178s438.64,1178,977.81,1178c2.21,0,4,1.79,4,4S1323.83,3161.85,1321.62,3161.85z"></path>
&#x9;</g>
</g>
<g>
&#x9;<g>
&#x9;&#x9;<path d="M1356.53,3161.85c-126.45,0-249.11-31.41-364.57-93.36c-55.46-29.76-108.95-66.59-158.98-109.47&#xA;&#x9;&#x9;&#x9;c-49.54-42.45-96.11-91.2-138.44-144.89c-85.86-108.92-153.26-235.73-200.34-376.92c-48.72-146.13-73.43-301.35-73.43-461.35&#xA;&#x9;&#x9;&#x9;c0-160,24.7-315.22,73.43-461.35c47.08-141.19,114.48-268.01,200.34-376.92c42.32-53.69,88.9-102.44,138.44-144.89&#xA;&#x9;&#x9;&#x9;c50.03-42.88,103.52-79.71,158.98-109.47c115.46-61.95,238.12-93.36,364.57-93.36c2.21,0,4,1.79,4,4s-1.79,4-4,4&#xA;&#x9;&#x9;&#x9;c-247.63,0-480.5,122.41-655.71,344.67c-175.43,222.55-272.05,518.49-272.05,833.32c0,314.83,96.61,610.77,272.05,833.32&#xA;&#x9;&#x9;&#x9;c175.21,222.27,408.08,344.67,655.71,344.67c2.21,0,4,1.79,4,4S1358.74,3161.85,1356.53,3161.85z"></path>
&#x9;</g>
</g>
<g>
&#x9;<g>
&#x9;&#x9;<path d="M1391.44,3161.85c-119.73,0-235.86-31.43-345.17-93.41c-105.48-59.81-200.19-145.4-281.5-254.4&#xA;&#x9;&#x9;&#x9;c-81.24-108.91-145.02-235.72-189.57-376.9c-46.1-146.11-69.47-301.31-69.47-461.29s23.37-315.18,69.47-461.29&#xA;&#x9;&#x9;&#x9;c44.54-141.18,108.32-267.99,189.57-376.9c81.31-109,176.02-194.59,281.5-254.4c109.31-61.98,225.44-93.41,345.17-93.41&#xA;&#x9;&#x9;&#x9;c2.21,0,4,1.79,4,4s-1.79,4-4,4c-234.22,0-454.5,122.38-620.26,344.59c-166.02,222.56-257.45,518.54-257.45,833.41&#xA;&#x9;&#x9;&#x9;c0,314.87,91.43,610.84,257.45,833.41c165.76,222.21,386.04,344.59,620.26,344.59c2.21,0,4,1.79,4,4&#xA;&#x9;&#x9;&#x9;S1393.65,3161.85,1391.44,3161.85z"></path>
&#x9;</g>
</g>
<g>
&#x9;<g>
&#x9;&#x9;<path d="M1426.35,3161.85c-113.01,0-222.62-31.44-325.78-93.46c-99.51-59.82-188.86-145.43-265.56-254.44&#xA;&#x9;&#x9;&#x9;c-76.63-108.91-136.78-235.71-178.79-376.87c-43.48-146.09-65.52-301.27-65.52-461.23s22.04-315.13,65.52-461.23&#xA;&#x9;&#x9;&#x9;c42.01-141.17,102.17-267.96,178.79-376.87c76.7-109.01,166.05-194.62,265.56-254.44c103.16-62.02,212.77-93.46,325.78-93.46&#xA;&#x9;&#x9;&#x9;c2.21,0,4,1.79,4,4s-1.79,4-4,4c-220.81,0-428.49,122.35-584.8,344.5c-156.61,222.58-242.86,518.59-242.86,833.5&#xA;&#x9;&#x9;&#x9;s86.25,610.91,242.86,833.5c156.31,222.16,364,344.5,584.8,344.5c2.21,0,4,1.79,4,4S1428.56,3161.85,1426.35,3161.85z"></path>
&#x9;</g>
</g>
<g>
&#x9;<g>
&#x9;&#x9;<path d="M1461.25,3161.85c-106.29,0-209.38-31.46-306.4-93.52c-93.55-59.84-177.53-145.45-249.63-254.48&#xA;&#x9;&#x9;&#x9;c-72.01-108.9-128.54-235.69-168.02-376.84c-40.86-146.07-61.57-301.23-61.57-461.16s20.72-315.09,61.57-461.16&#xA;&#x9;&#x9;&#x9;c39.48-141.15,96.01-267.94,168.02-376.84c72.09-109.02,156.08-194.64,249.63-254.48c97.02-62.05,200.1-93.52,306.4-93.52&#xA;&#x9;&#x9;&#x9;c2.21,0,4,1.79,4,4s-1.79,4-4,4c-207.39,0-402.49,122.31-549.35,344.4c-147.2,222.6-228.27,518.64-228.27,833.59&#xA;&#x9;&#x9;&#x9;s81.07,610.99,228.27,833.59c146.86,222.09,341.96,344.41,549.35,344.41c2.21,0,4,1.79,4,4S1463.46,3161.85,1461.25,3161.85z"></path>
&#x9;</g>
</g>
<g>
&#x9;<g>
&#x9;&#x9;<path d="M1496.16,3161.85c-99.58,0-196.15-31.49-287.02-93.58c-87.58-59.85-166.2-145.48-233.68-254.51&#xA;&#x9;&#x9;&#x9;c-67.4-108.89-120.3-235.67-157.25-376.8c-38.23-146.05-57.62-301.19-57.62-461.1s19.39-315.05,57.62-461.1&#xA;&#x9;&#x9;&#x9;c36.95-141.14,89.85-267.91,157.25-376.8c67.48-109.03,146.1-194.66,233.68-254.51c90.87-62.1,187.43-93.58,287.02-93.58&#xA;&#x9;&#x9;&#x9;c2.21,0,4,1.79,4,4s-1.79,4-4,4c-193.97,0-376.48,122.28-513.89,344.3c-137.79,222.63-213.67,518.7-213.67,833.69&#xA;&#x9;&#x9;&#x9;s75.88,611.07,213.67,833.69c137.42,222.03,319.92,344.3,513.89,344.3c2.21,0,4,1.79,4,4S1498.37,3161.85,1496.16,3161.85z"></path>
&#x9;</g>
</g>
<g>
&#x9;<g>
&#x9;&#x9;<path d="M1531.07,3161.85c-92.87,0-182.92-31.51-267.64-93.66c-81.6-59.86-154.86-145.5-217.73-254.54&#xA;&#x9;&#x9;&#x9;c-62.78-108.88-112.06-235.64-146.48-376.76c-35.61-146.03-53.67-301.15-53.67-461.03s18.06-315,53.67-461.03&#xA;&#x9;&#x9;&#x9;c34.42-141.12,83.7-267.88,146.48-376.76c62.87-109.04,136.12-194.68,217.73-254.54c84.72-62.15,174.77-93.66,267.64-93.66&#xA;&#x9;&#x9;&#x9;c2.21,0,4,1.79,4,4s-1.79,4-4,4c-180.55,0-350.46,122.24-478.44,344.2c-128.38,222.65-199.08,518.77-199.08,833.8&#xA;&#x9;&#x9;&#x9;c0,315.03,70.7,611.15,199.08,833.8c127.98,221.96,297.89,344.2,478.44,344.2c2.21,0,4,1.79,4,4S1533.28,3161.85,1531.07,3161.85z&#xA;&#x9;&#x9;&#x9;"></path>
&#x9;</g>
</g>
<g>
&#x9;<g>
&#x9;&#x9;<path d="M1565.98,3161.85c-86.17,0-169.71-31.54-248.28-93.75c-75.63-59.88-143.51-145.52-201.77-254.56&#xA;&#x9;&#x9;&#x9;c-58.16-108.87-103.82-235.61-135.7-376.71c-32.99-146.01-49.72-301.1-49.72-460.97c0-159.86,16.73-314.96,49.72-460.97&#xA;&#x9;&#x9;&#x9;c31.88-141.1,77.54-267.85,135.7-376.71c58.25-109.04,126.14-194.69,201.77-254.56c78.57-62.21,162.11-93.75,248.28-93.75&#xA;&#x9;&#x9;&#x9;c2.21,0,4,1.79,4,4s-1.79,4-4,4c-167.13,0-324.45,122.2-442.99,344.08c-118.96,222.68-184.48,518.84-184.48,833.91&#xA;&#x9;&#x9;&#x9;c0,315.08,65.52,611.23,184.48,833.91c118.54,221.89,275.86,344.08,442.99,344.08c2.21,0,4,1.79,4,4&#xA;&#x9;&#x9;&#x9;S1568.18,3161.85,1565.98,3161.85z"></path>
&#x9;</g>
</g>
<g>
&#x9;<g>
&#x9;&#x9;<path d="M1600.88,3161.85c-79.48,0-156.5-31.58-228.92-93.85c-69.65-59.89-132.16-145.54-185.79-254.58&#xA;&#x9;&#x9;&#x9;c-53.55-108.85-95.58-235.58-124.93-376.66c-30.37-145.99-45.77-301.06-45.77-460.9s15.4-314.91,45.77-460.9&#xA;&#x9;&#x9;&#x9;c29.35-141.08,71.39-267.81,124.93-376.66c53.64-109.04,116.15-194.69,185.79-254.58c72.43-62.28,149.45-93.85,228.92-93.85&#xA;&#x9;&#x9;&#x9;c2.21,0,4,1.79,4,4s-1.79,4-4,4c-153.7,0-298.43,122.16-407.54,343.96c-109.55,222.71-169.88,518.91-169.88,834.03&#xA;&#x9;&#x9;&#x9;s60.33,611.32,169.88,834.03c109.11,221.81,253.84,343.96,407.54,343.96c2.21,0,4,1.79,4,4S1603.09,3161.85,1600.88,3161.85z"></path>
&#x9;</g>
</g>
<g>
&#x9;<g>
&#x9;&#x9;<path d="M1635.79,3161.85c-72.79,0-143.3-31.62-209.58-93.97c-63.66-59.9-120.79-145.55-169.81-254.58&#xA;&#x9;&#x9;&#x9;c-48.93-108.84-87.34-235.55-114.16-376.6c-27.76-145.97-41.83-301.02-41.83-460.83c0-159.82,14.07-314.87,41.83-460.83&#xA;&#x9;&#x9;&#x9;c26.82-141.06,65.23-267.77,114.16-376.6c49.02-109.03,106.15-194.69,169.81-254.58c66.28-62.36,136.79-93.97,209.58-93.97&#xA;&#x9;&#x9;&#x9;c2.21,0,4,1.79,4,4s-1.79,4-4,4c-290.8,0-527.38,528.45-527.38,1178s236.58,1178,527.38,1178c2.21,0,4,1.79,4,4&#xA;&#x9;&#x9;&#x9;S1638,3161.85,1635.79,3161.85z"></path>
&#x9;</g>
</g>
<g>
&#x9;<g>
&#x9;&#x9;<path d="M1670.7,3161.85c-66.11,0-130.11-31.66-190.24-94.11c-57.67-59.9-109.42-145.55-153.82-254.58&#xA;&#x9;&#x9;&#x9;c-44.31-108.82-79.1-235.51-103.39-376.54c-25.14-145.95-37.88-300.97-37.88-460.77c0-159.8,12.75-314.82,37.88-460.77&#xA;&#x9;&#x9;&#x9;c24.29-141.04,59.08-267.72,103.39-376.54c44.4-109.02,96.15-194.68,153.82-254.58c60.12-62.45,124.13-94.11,190.24-94.11&#xA;&#x9;&#x9;&#x9;c2.21,0,4,1.79,4,4s-1.79,4-4,4c-263.2,0-477.33,528.45-477.33,1178s214.13,1178,477.33,1178c2.21,0,4,1.79,4,4&#xA;&#x9;&#x9;&#x9;S1672.91,3161.85,1670.7,3161.85z"></path>
&#x9;</g>
</g>
<g>
&#x9;<g>
&#x9;&#x9;<path d="M1705.6,3161.85c-59.44,0-116.94-31.72-170.9-94.27c-51.67-59.9-98.04-145.54-137.82-254.55&#xA;&#x9;&#x9;&#x9;c-39.7-108.8-70.86-235.46-92.62-376.47c-22.52-145.92-33.94-300.92-33.94-460.7c0-159.77,11.42-314.77,33.94-460.7&#xA;&#x9;&#x9;&#x9;c21.76-141.01,52.92-267.67,92.62-376.47c39.77-109.01,86.14-194.65,137.82-254.55c53.96-62.56,111.46-94.27,170.9-94.27&#xA;&#x9;&#x9;&#x9;c2.21,0,4,1.79,4,4s-1.79,4-4,4c-57.01,0-112.47,30.79-164.84,91.5c-51.04,59.17-96.92,143.97-136.36,252.07&#xA;&#x9;&#x9;&#x9;c-81.3,222.82-126.08,519.16-126.08,834.43c0,315.27,44.77,611.61,126.08,834.43c39.44,108.1,85.32,192.91,136.36,252.07&#xA;&#x9;&#x9;&#x9;c52.38,60.71,107.84,91.5,164.84,91.5c2.21,0,4,1.79,4,4S1707.81,3161.85,1705.6,3161.85z"></path>
&#x9;</g>
</g>
<g>
&#x9;<g>
&#x9;&#x9;<path d="M1740.51,3161.85c-52.78,0-103.78-31.78-151.57-94.46c-45.67-59.89-86.65-145.52-121.81-254.51&#xA;&#x9;&#x9;&#x9;c-35.08-108.78-62.62-235.42-81.86-376.4c-19.9-145.9-30-300.88-30-460.63c0-159.75,10.09-314.73,30-460.63&#xA;&#x9;&#x9;&#x9;c19.23-140.98,46.77-267.62,81.86-376.4c35.15-108.99,76.13-194.61,121.81-254.51c47.8-62.68,98.79-94.46,151.57-94.46&#xA;&#x9;&#x9;&#x9;c2.21,0,4,1.79,4,4s-1.79,4-4,4c-50.15,0-99.01,30.72-145.21,91.31c-45.12,59.17-85.68,143.99-120.55,252.11&#xA;&#x9;&#x9;&#x9;c-71.88,222.86-111.47,519.25-111.47,834.57c0,315.32,39.59,611.71,111.47,834.57c34.87,108.12,75.43,192.94,120.55,252.11&#xA;&#x9;&#x9;&#x9;c46.2,60.59,95.06,91.31,145.21,91.31c2.21,0,4,1.79,4,4S1742.72,3161.85,1740.51,3161.85z"></path>
&#x9;</g>
</g>
<g>
&#x9;<g>
&#x9;&#x9;<path d="M1775.42,3161.85c-90.42,0-174.95-123.99-238.03-349.12c-30.47-108.75-54.39-235.36-71.1-376.32&#xA;&#x9;&#x9;&#x9;c-17.29-145.88-26.05-300.83-26.05-460.56c0-159.73,8.77-314.68,26.05-460.56c16.7-140.96,40.62-267.57,71.1-376.32&#xA;&#x9;&#x9;&#x9;c63.08-225.13,147.62-349.12,238.03-349.12c2.21,0,4,1.79,4,4s-1.79,4-4,4c-43.28,0-85.53,30.65-125.58,91.1&#xA;&#x9;&#x9;&#x9;c-39.21,59.18-74.45,144.03-104.75,252.18c-62.46,222.91-96.85,519.35-96.85,834.72c0,315.37,34.4,611.81,96.85,834.72&#xA;&#x9;&#x9;&#x9;c30.3,108.15,65.55,193,104.75,252.18c40.04,60.45,82.29,91.1,125.58,91.1c2.21,0,4,1.79,4,4S1777.63,3161.85,1775.42,3161.85z"></path>
&#x9;</g>
</g>
<g>
&#x9;<g>
&#x9;&#x9;<path d="M1810.33,3161.85c-77.13,0-149.11-124.04-202.69-349.27c-53.17-223.54-82.45-520.7-82.45-836.72&#xA;&#x9;&#x9;&#x9;s29.28-613.18,82.45-836.72c53.57-225.23,125.55-349.27,202.69-349.27c2.21,0,4,1.79,4,4s-1.79,4-4,4&#xA;&#x9;&#x9;&#x9;c-36.4,0-72.05,30.57-105.94,90.85c-33.29,59.21-63.22,144.09-88.96,252.28c-53.03,222.96-82.23,519.45-82.23,834.87&#xA;&#x9;&#x9;&#x9;c0,315.42,29.2,611.92,82.23,834.87c25.73,108.19,55.66,193.07,88.96,252.28c33.9,60.28,69.54,90.85,105.94,90.85&#xA;&#x9;&#x9;&#x9;c2.21,0,4,1.79,4,4S1812.53,3161.85,1810.33,3161.85z"></path>
&#x9;</g>
</g>
<g>
&#x9;<g>
&#x9;&#x9;<path d="M1845.23,3161.85c-32.89,0-64.38-32.03-93.58-95.21c-27.65-59.82-52.46-145.36-73.75-254.22&#xA;&#x9;&#x9;&#x9;c-43.69-223.5-67.76-520.59-67.76-836.57s24.06-613.07,67.76-836.57c21.28-108.87,46.1-194.4,73.75-254.22&#xA;&#x9;&#x9;&#x9;c29.2-63.18,60.69-95.21,93.58-95.21c2.21,0,4,1.79,4,4s-1.79,4-4,4c-14.54,0-29.24,7.66-43.68,22.78&#xA;&#x9;&#x9;&#x9;c-14.53,15.21-28.88,38.02-42.64,67.79c-27.38,59.24-52,144.16-73.16,252.4c-43.6,223-67.61,519.56-67.61,835.03&#xA;&#x9;&#x9;&#x9;c0,315.47,24.01,612.03,67.61,835.03c21.16,108.24,45.78,193.16,73.16,252.4c13.76,29.77,28.11,52.58,42.64,67.79&#xA;&#x9;&#x9;&#x9;c14.44,15.11,29.14,22.78,43.68,22.78c2.21,0,4,1.79,4,4S1847.44,3161.85,1845.23,3161.85z"></path>
&#x9;</g>
</g>
<g>
&#x9;<g>
&#x9;&#x9;<path d="M1880.14,3161.85c-26.3,0-51.28-32.14-74.23-95.53c-21.65-59.78-41.07-145.26-57.74-254.07&#xA;&#x9;&#x9;&#x9;c-34.22-223.44-53.07-520.48-53.07-836.4c0-315.92,18.85-612.96,53.07-836.4c16.67-108.81,36.09-194.29,57.74-254.07&#xA;&#x9;&#x9;&#x9;c22.95-63.39,47.93-95.53,74.23-95.53c2.21,0,4,1.79,4,4s-1.79,4-4,4c-22.26,0-45.33,31.21-66.71,90.25&#xA;&#x9;&#x9;&#x9;c-21.47,59.29-40.77,144.26-57.35,252.56c-34.16,223.06-52.98,519.67-52.98,835.19s18.82,612.14,52.98,835.19&#xA;&#x9;&#x9;&#x9;c16.59,108.3,35.88,193.27,57.35,252.56c21.38,59.04,44.45,90.25,66.71,90.25c2.21,0,4,1.79,4,4S1882.35,3161.85,1880.14,3161.85z&#xA;&#x9;&#x9;&#x9;"></path>
&#x9;</g>
</g>
<g>
&#x9;<g>
&#x9;&#x9;<path d="M1915.05,3161.85c-20.01,0-37.95-31.36-54.86-95.87c-15.65-59.72-29.69-145.14-41.74-253.89&#xA;&#x9;&#x9;&#x9;c-24.76-223.39-38.39-520.37-38.39-836.24s13.63-612.85,38.39-836.24c12.05-108.75,26.1-194.16,41.74-253.89&#xA;&#x9;&#x9;&#x9;c16.9-64.51,34.85-95.87,54.86-95.87c2.21,0,4,1.79,4,4s-1.79,4-4,4c-8.8,0-26.62,11.68-47.12,89.9&#xA;&#x9;&#x9;&#x9;c-15.55,59.35-29.52,144.38-41.53,252.74c-24.73,223.11-38.34,519.78-38.34,835.36s13.62,612.25,38.34,835.36&#xA;&#x9;&#x9;&#x9;c12.01,108.36,25.98,193.39,41.53,252.74c20.5,78.22,38.32,89.9,47.12,89.9c2.21,0,4,1.79,4,4S1917.26,3161.85,1915.05,3161.85z"></path>
&#x9;</g>
</g>
<g>
&#x9;<g>
&#x9;&#x9;<path d="M1949.95,3161.85c-9.25,0-21.64-10.94-35.46-96.25c-9.66-59.65-18.33-145-25.77-253.68&#xA;&#x9;&#x9;&#x9;c-15.29-223.34-23.72-520.26-23.72-836.07c0-315.81,8.42-612.73,23.72-836.07c7.44-108.67,16.11-194.02,25.77-253.68&#xA;&#x9;&#x9;&#x9;c13.81-85.31,26.2-96.25,35.46-96.25c2.21,0,4,1.79,4,4s-1.79,4-4,4c-0.55,0-5.6,0.6-12.52,21.28&#xA;&#x9;&#x9;&#x9;c-5.13,15.32-10.19,38.28-15.04,68.24c-9.62,59.41-18.26,144.52-25.69,252.95c-15.28,223.16-23.7,519.89-23.7,835.52&#xA;&#x9;&#x9;&#x9;c0,315.63,8.42,612.36,23.7,835.52c7.43,108.43,16.07,193.53,25.69,252.95c4.85,29.96,9.91,52.92,15.04,68.24&#xA;&#x9;&#x9;&#x9;c6.92,20.69,11.97,21.28,12.52,21.28c2.21,0,4,1.79,4,4S1952.16,3161.85,1949.95,3161.85z"></path>
&#x9;</g>
</g>
<g>
&#x9;<g>
&#x9;&#x9;<path d="M1984.86,3161.85c-4.62,0-7.19-3.97-10.19-27.51c-1.99-15.62-3.95-38.88-5.82-69.13c-3.68-59.58-6.99-144.85-9.83-253.45&#xA;&#x9;&#x9;&#x9;c-5.84-223.28-9.05-520.15-9.05-835.9s3.21-612.62,9.05-835.9c2.84-108.6,6.15-193.87,9.83-253.45&#xA;&#x9;&#x9;&#x9;c1.87-30.26,3.83-53.52,5.82-69.13c3.01-23.54,5.58-27.51,10.19-27.51c2.21,0,4,1.79,4,4c0,1.54-0.87,2.88-2.15,3.55&#xA;&#x9;&#x9;&#x9;c-3.04,5.73-12.29,49.49-20.06,357.06c-5.6,221.5-8.68,513.2-8.68,821.39c0,308.18,3.08,599.89,8.68,821.39&#xA;&#x9;&#x9;&#x9;c7.77,307.58,17.02,351.33,20.06,357.06c1.28,0.67,2.15,2.01,2.15,3.55C1988.86,3160.06,1987.07,3161.85,1984.86,3161.85z"></path>
&#x9;</g>
</g>
<g>
&#x9;<g>
&#x9;&#x9;<path d="M2783.1,3161.85c-2.21,0-4-1.79-4-4s1.79-4,4-4c621.95,0,1127.95-528.45,1127.95-1178s-506-1178-1127.95-1178&#xA;&#x9;&#x9;&#x9;c-2.21,0-4-1.79-4-4s1.79-4,4-4c153.37,0,302.16,31.37,442.22,93.23c67.31,29.73,132.24,66.53,192.97,109.37&#xA;&#x9;&#x9;&#x9;c60.15,42.43,116.71,91.16,168.11,144.83c51.4,53.67,98.06,112.73,138.69,175.53c41.02,63.4,76.25,131.18,104.71,201.45&#xA;&#x9;&#x9;&#x9;c59.22,146.2,89.25,301.5,89.25,461.59c0,160.09-30.03,315.39-89.25,461.59c-28.46,70.27-63.69,138.05-104.71,201.45&#xA;&#x9;&#x9;&#x9;c-40.63,62.8-87.29,121.86-138.69,175.53c-51.4,53.67-107.96,102.4-168.11,144.83c-60.73,42.84-125.65,79.64-192.97,109.37&#xA;&#x9;&#x9;&#x9;C3085.25,3130.48,2936.47,3161.85,2783.1,3161.85z"></path>
&#x9;</g>
</g>
<g>
&#x9;<g>
&#x9;&#x9;<path d="M2748.19,3161.85c-2.21,0-4-1.79-4-4s1.79-4,4-4c594.36,0,1077.9-528.45,1077.9-1178s-483.54-1178-1077.9-1178&#xA;&#x9;&#x9;&#x9;c-2.21,0-4-1.79-4-4s1.79-4,4-4c146.64,0,288.89,31.38,422.8,93.26c64.35,29.74,126.42,66.54,184.47,109.39&#xA;&#x9;&#x9;&#x9;c57.5,42.44,111.56,91.17,160.69,144.85c49.13,53.67,93.73,112.73,132.56,175.53c39.2,63.4,72.88,131.17,100.08,201.44&#xA;&#x9;&#x9;&#x9;c56.59,146.19,85.29,301.47,85.29,461.53s-28.7,315.35-85.29,461.53c-27.2,70.27-60.88,138.04-100.08,201.44&#xA;&#x9;&#x9;&#x9;c-38.83,62.8-83.43,121.86-132.56,175.53c-49.13,53.68-103.2,102.41-160.69,144.85c-58.06,42.85-120.12,79.66-184.47,109.39&#xA;&#x9;&#x9;&#x9;C3037.08,3130.47,2894.83,3161.85,2748.19,3161.85z"></path>
&#x9;</g>
</g>
<g>
&#x9;<g>
&#x9;&#x9;<path d="M2713.28,3161.85c-2.21,0-4-1.79-4-4s1.79-4,4-4c566.76,0,1027.85-528.45,1027.85-1178s-461.09-1178-1027.85-1178&#xA;&#x9;&#x9;&#x9;c-2.21,0-4-1.79-4-4s1.79-4,4-4c139.91,0,275.63,31.39,403.39,93.29c61.39,29.74,120.6,66.56,175.98,109.42&#xA;&#x9;&#x9;&#x9;c54.84,42.44,106.41,91.18,153.28,144.87c46.86,53.67,89.39,112.73,126.43,175.53c37.39,63.39,69.5,131.16,95.44,201.43&#xA;&#x9;&#x9;&#x9;c53.97,146.17,81.34,301.43,81.34,461.47s-27.37,315.3-81.34,461.47c-25.94,70.26-58.05,138.03-95.44,201.42&#xA;&#x9;&#x9;&#x9;c-37.04,62.8-79.58,121.86-126.43,175.53c-46.86,53.68-98.43,102.42-153.28,144.87c-55.38,42.86-114.59,79.67-175.98,109.42&#xA;&#x9;&#x9;&#x9;C2988.91,3130.46,2853.19,3161.85,2713.28,3161.85z"></path>
&#x9;</g>
</g>
<g>
&#x9;<g>
&#x9;&#x9;<path d="M2678.38,3161.85c-2.21,0-4-1.79-4-4s1.79-4,4-4c539.16,0,977.81-528.45,977.81-1178s-438.64-1178-977.81-1178&#xA;&#x9;&#x9;&#x9;c-2.21,0-4-1.79-4-4s1.79-4,4-4c133.18,0,262.37,31.4,383.98,93.32c58.43,29.75,114.78,66.57,167.48,109.44&#xA;&#x9;&#x9;&#x9;c52.19,42.45,101.26,91.19,145.86,144.88c90.47,108.92,161.5,235.74,211.11,376.94c51.35,146.15,77.38,301.39,77.38,461.41&#xA;&#x9;&#x9;&#x9;s-26.04,315.26-77.38,461.41c-49.61,141.2-120.63,268.02-211.11,376.94c-44.59,53.69-93.67,102.43-145.86,144.88&#xA;&#x9;&#x9;&#x9;c-52.71,42.87-109.06,79.69-167.48,109.44C2940.74,3130.45,2811.55,3161.85,2678.38,3161.85z"></path>
&#x9;</g>
</g>
<g>
&#x9;<g>
&#x9;&#x9;<path d="M2643.47,3161.85c-2.21,0-4-1.79-4-4s1.79-4,4-4c247.63,0,480.5-122.41,655.71-344.67&#xA;&#x9;&#x9;&#x9;c175.43-222.55,272.05-518.49,272.05-833.32c0-314.83-96.62-610.77-272.05-833.32c-175.21-222.27-408.08-344.67-655.71-344.67&#xA;&#x9;&#x9;&#x9;c-2.21,0-4-1.79-4-4s1.79-4,4-4c126.45,0,249.11,31.41,364.57,93.36c55.46,29.76,108.95,66.59,158.98,109.47&#xA;&#x9;&#x9;&#x9;c49.54,42.45,96.11,91.2,138.44,144.89c85.86,108.92,153.26,235.73,200.34,376.92c48.72,146.13,73.43,301.35,73.43,461.35&#xA;&#x9;&#x9;&#x9;c0,160-24.7,315.22-73.43,461.35c-47.08,141.19-114.48,268.01-200.34,376.92c-42.32,53.69-88.9,102.44-138.44,144.89&#xA;&#x9;&#x9;&#x9;c-50.03,42.88-103.52,79.71-158.98,109.47C2892.58,3130.44,2769.92,3161.85,2643.47,3161.85z"></path>
&#x9;</g>
</g>
<g>
&#x9;<g>
&#x9;&#x9;<path d="M2608.56,3161.85c-2.21,0-4-1.79-4-4s1.79-4,4-4c234.22,0,454.5-122.38,620.26-344.59&#xA;&#x9;&#x9;&#x9;c166.02-222.56,257.45-518.54,257.45-833.41c0-314.87-91.43-610.84-257.45-833.41c-165.76-222.21-386.04-344.59-620.26-344.59&#xA;&#x9;&#x9;&#x9;c-2.21,0-4-1.79-4-4s1.79-4,4-4c119.73,0,235.86,31.43,345.17,93.41c105.48,59.81,200.19,145.4,281.5,254.4&#xA;&#x9;&#x9;&#x9;c81.24,108.91,145.02,235.72,189.57,376.9c46.1,146.11,69.47,301.31,69.47,461.29s-23.37,315.18-69.47,461.29&#xA;&#x9;&#x9;&#x9;c-44.54,141.18-108.32,267.99-189.57,376.9c-81.31,109-176.02,194.59-281.5,254.4&#xA;&#x9;&#x9;&#x9;C2844.42,3130.42,2728.29,3161.85,2608.56,3161.85z"></path>
&#x9;</g>
</g>
<g>
&#x9;<g>
&#x9;&#x9;<path d="M2573.65,3161.85c-2.21,0-4-1.79-4-4s1.79-4,4-4c220.81,0,428.49-122.35,584.8-344.5&#xA;&#x9;&#x9;&#x9;c156.61-222.58,242.86-518.59,242.86-833.5s-86.25-610.91-242.86-833.5c-156.31-222.15-364-344.5-584.8-344.5c-2.21,0-4-1.79-4-4&#xA;&#x9;&#x9;&#x9;s1.79-4,4-4c113.01,0,222.62,31.44,325.78,93.46c99.51,59.82,188.86,145.43,265.56,254.44&#xA;&#x9;&#x9;&#x9;c76.63,108.91,136.78,235.71,178.79,376.87c43.48,146.09,65.52,301.27,65.52,461.23s-22.04,315.13-65.52,461.23&#xA;&#x9;&#x9;&#x9;c-42.01,141.17-102.17,267.96-178.79,376.87c-76.7,109.01-166.05,194.62-265.56,254.44&#xA;&#x9;&#x9;&#x9;C2796.27,3130.4,2686.66,3161.85,2573.65,3161.85z"></path>
&#x9;</g>
</g>
<g>
&#x9;<g>
&#x9;&#x9;<path d="M2538.75,3161.85c-2.21,0-4-1.79-4-4s1.79-4,4-4c207.39,0,402.49-122.31,549.35-344.41&#xA;&#x9;&#x9;&#x9;c147.2-222.6,228.27-518.64,228.27-833.59s-81.07-610.99-228.27-833.59c-146.86-222.09-341.96-344.4-549.35-344.4&#xA;&#x9;&#x9;&#x9;c-2.21,0-4-1.79-4-4s1.79-4,4-4c106.29,0,209.38,31.46,306.4,93.52c93.55,59.84,177.53,145.45,249.63,254.48&#xA;&#x9;&#x9;&#x9;c72.01,108.9,128.54,235.69,168.02,376.84c40.86,146.07,61.57,301.23,61.57,461.16s-20.72,315.09-61.57,461.16&#xA;&#x9;&#x9;&#x9;c-39.48,141.15-96.01,267.94-168.02,376.84c-72.09,109.02-156.08,194.64-249.63,254.48&#xA;&#x9;&#x9;&#x9;C2748.13,3130.38,2645.04,3161.85,2538.75,3161.85z"></path>
&#x9;</g>
</g>
<g>
&#x9;<g>
&#x9;&#x9;<path d="M2503.84,3161.85c-2.21,0-4-1.79-4-4s1.79-4,4-4c193.97,0,376.48-122.28,513.89-344.3&#xA;&#x9;&#x9;&#x9;c137.79-222.63,213.67-518.7,213.67-833.69s-75.88-611.07-213.67-833.69c-137.42-222.03-319.92-344.3-513.89-344.3&#xA;&#x9;&#x9;&#x9;c-2.21,0-4-1.79-4-4s1.79-4,4-4c99.58,0,196.15,31.49,287.02,93.58c87.58,59.85,166.2,145.48,233.68,254.51&#xA;&#x9;&#x9;&#x9;c67.4,108.89,120.3,235.67,157.25,376.8c38.23,146.05,57.62,301.19,57.62,461.1s-19.39,315.05-57.62,461.1&#xA;&#x9;&#x9;&#x9;c-36.95,141.14-89.85,267.91-157.25,376.8c-67.48,109.03-146.1,194.66-233.68,254.51&#xA;&#x9;&#x9;&#x9;C2699.99,3130.36,2603.42,3161.85,2503.84,3161.85z"></path>
&#x9;</g>
</g>
<g>
&#x9;<g>
&#x9;&#x9;<path d="M2468.93,3161.85c-2.21,0-4-1.79-4-4s1.79-4,4-4c180.55,0,350.46-122.24,478.44-344.2&#xA;&#x9;&#x9;&#x9;c128.38-222.65,199.08-518.77,199.08-833.8c0-315.03-70.7-611.15-199.08-833.8c-127.98-221.96-297.89-344.2-478.44-344.2&#xA;&#x9;&#x9;&#x9;c-2.21,0-4-1.79-4-4s1.79-4,4-4c92.87,0,182.92,31.51,267.64,93.66c81.6,59.86,154.86,145.5,217.73,254.54&#xA;&#x9;&#x9;&#x9;c62.78,108.88,112.06,235.64,146.48,376.76c35.61,146.03,53.67,301.15,53.67,461.03s-18.06,315-53.67,461.03&#xA;&#x9;&#x9;&#x9;c-34.42,141.12-83.7,267.88-146.48,376.76c-62.87,109.04-136.12,194.68-217.73,254.54&#xA;&#x9;&#x9;&#x9;C2651.85,3130.33,2561.8,3161.85,2468.93,3161.85z"></path>
&#x9;</g>
</g>
<g>
&#x9;<g>
&#x9;&#x9;<path d="M2434.02,3161.85c-2.21,0-4-1.79-4-4s1.79-4,4-4c167.13,0,324.45-122.2,442.99-344.08&#xA;&#x9;&#x9;&#x9;c118.97-222.68,184.48-518.84,184.48-833.91c0-315.08-65.52-611.23-184.48-833.91c-118.54-221.89-275.86-344.08-442.99-344.08&#xA;&#x9;&#x9;&#x9;c-2.21,0-4-1.79-4-4s1.79-4,4-4c86.17,0,169.71,31.54,248.28,93.75c75.63,59.88,143.51,145.52,201.77,254.56&#xA;&#x9;&#x9;&#x9;c58.16,108.87,103.82,235.61,135.7,376.71c32.99,146.01,49.72,301.1,49.72,460.97c0,159.86-16.73,314.96-49.72,460.97&#xA;&#x9;&#x9;&#x9;c-31.88,141.1-77.54,267.85-135.7,376.71c-58.25,109.04-126.14,194.69-201.77,254.56&#xA;&#x9;&#x9;&#x9;C2603.73,3130.31,2520.2,3161.85,2434.02,3161.85z"></path>
&#x9;</g>
</g>
<g>
&#x9;<g>
&#x9;&#x9;<path d="M2399.12,3161.85c-2.21,0-4-1.79-4-4s1.79-4,4-4c153.7,0,298.43-122.16,407.54-343.96&#xA;&#x9;&#x9;&#x9;c109.55-222.71,169.88-518.91,169.88-834.03s-60.33-611.32-169.88-834.03c-109.11-221.81-253.84-343.96-407.54-343.96&#xA;&#x9;&#x9;&#x9;c-2.21,0-4-1.79-4-4s1.79-4,4-4c79.48,0,156.5,31.58,228.92,93.85c69.65,59.89,132.16,145.54,185.79,254.58&#xA;&#x9;&#x9;&#x9;c53.54,108.85,95.58,235.58,124.93,376.66c30.37,145.99,45.78,301.06,45.78,460.9s-15.4,314.91-45.78,460.9&#xA;&#x9;&#x9;&#x9;c-29.35,141.08-71.39,267.81-124.93,376.66c-53.64,109.04-116.15,194.69-185.79,254.58&#xA;&#x9;&#x9;&#x9;C2555.61,3130.27,2478.59,3161.85,2399.12,3161.85z"></path>
&#x9;</g>
</g>
<g>
&#x9;<g>
&#x9;&#x9;<path d="M2364.21,3161.85c-2.21,0-4-1.79-4-4s1.79-4,4-4c290.8,0,527.38-528.45,527.38-1178s-236.58-1178-527.38-1178&#xA;&#x9;&#x9;&#x9;c-2.21,0-4-1.79-4-4s1.79-4,4-4c72.79,0,143.3,31.62,209.58,93.97c63.66,59.9,120.79,145.55,169.81,254.58&#xA;&#x9;&#x9;&#x9;c48.93,108.84,87.34,235.55,114.16,376.6c27.75,145.97,41.83,301.02,41.83,460.83c0,159.82-14.07,314.87-41.83,460.83&#xA;&#x9;&#x9;&#x9;c-26.82,141.06-65.23,267.77-114.16,376.6c-49.02,109.03-106.15,194.69-169.81,254.58&#xA;&#x9;&#x9;&#x9;C2507.51,3130.23,2437,3161.85,2364.21,3161.85z"></path>
&#x9;</g>
</g>
<g>
&#x9;<g>
&#x9;&#x9;<path d="M2329.3,3161.85c-2.21,0-4-1.79-4-4s1.79-4,4-4c263.2,0,477.33-528.45,477.33-1178s-214.13-1178-477.33-1178&#xA;&#x9;&#x9;&#x9;c-2.21,0-4-1.79-4-4s1.79-4,4-4c66.11,0,130.11,31.66,190.24,94.11c57.67,59.9,109.42,145.55,153.82,254.58&#xA;&#x9;&#x9;&#x9;c44.31,108.82,79.1,235.51,103.39,376.54c25.14,145.95,37.88,300.97,37.88,460.77c0,159.8-12.75,314.82-37.88,460.77&#xA;&#x9;&#x9;&#x9;c-24.29,141.04-59.08,267.72-103.39,376.54c-44.4,109.03-96.15,194.68-153.82,254.58&#xA;&#x9;&#x9;&#x9;C2459.42,3130.18,2395.41,3161.85,2329.3,3161.85z"></path>
&#x9;</g>
</g>
<g>
&#x9;<g>
&#x9;&#x9;<path d="M2294.4,3161.85c-2.21,0-4-1.79-4-4s1.79-4,4-4c57.01,0,112.47-30.79,164.84-91.5c51.04-59.17,96.92-143.97,136.36-252.07&#xA;&#x9;&#x9;&#x9;c81.3-222.82,126.08-519.16,126.08-834.43c0-315.27-44.77-611.61-126.08-834.43c-39.44-108.1-85.32-192.9-136.36-252.07&#xA;&#x9;&#x9;&#x9;c-52.38-60.71-107.84-91.5-164.84-91.5c-2.21,0-4-1.79-4-4s1.79-4,4-4c59.44,0,116.94,31.72,170.9,94.27&#xA;&#x9;&#x9;&#x9;c51.67,59.9,98.04,145.54,137.82,254.55c39.7,108.8,70.86,235.46,92.62,376.47c22.52,145.92,33.94,300.92,33.94,460.7&#xA;&#x9;&#x9;&#x9;c0,159.77-11.42,314.77-33.94,460.7c-21.76,141.01-52.92,267.67-92.62,376.47c-39.77,109.01-86.14,194.65-137.82,254.55&#xA;&#x9;&#x9;&#x9;C2411.33,3130.13,2353.83,3161.85,2294.4,3161.85z"></path>
&#x9;</g>
</g>
<g>
&#x9;<g>
&#x9;&#x9;<path d="M2259.49,3161.85c-2.21,0-4-1.79-4-4s1.79-4,4-4c50.15,0,99.01-30.72,145.21-91.31&#xA;&#x9;&#x9;&#x9;c45.12-59.17,85.68-143.99,120.55-252.11c71.88-222.86,111.47-519.25,111.47-834.57s-39.59-611.71-111.47-834.57&#xA;&#x9;&#x9;&#x9;c-34.87-108.12-75.43-192.94-120.55-252.11c-46.2-60.59-95.06-91.31-145.21-91.31c-2.21,0-4-1.79-4-4s1.79-4,4-4&#xA;&#x9;&#x9;&#x9;c52.78,0,103.78,31.78,151.57,94.46c45.67,59.9,86.65,145.52,121.81,254.51c35.08,108.78,62.62,235.41,81.86,376.4&#xA;&#x9;&#x9;&#x9;c19.9,145.9,30,300.88,30,460.63c0,159.75-10.09,314.73-30,460.63c-19.23,140.98-46.77,267.62-81.86,376.4&#xA;&#x9;&#x9;&#x9;c-35.15,108.99-76.13,194.61-121.81,254.51C2363.27,3130.07,2312.27,3161.85,2259.49,3161.85z"></path>
&#x9;</g>
</g>
<g>
&#x9;<g>
&#x9;&#x9;<path d="M2224.58,3161.85c-2.21,0-4-1.79-4-4s1.79-4,4-4c43.28,0,85.53-30.65,125.58-91.1c39.21-59.19,74.45-144.03,104.75-252.18&#xA;&#x9;&#x9;&#x9;c62.46-222.91,96.85-519.35,96.85-834.72s-34.4-611.81-96.85-834.72c-30.3-108.15-65.55-193-104.75-252.18&#xA;&#x9;&#x9;&#x9;c-40.04-60.45-82.29-91.1-125.58-91.1c-2.21,0-4-1.79-4-4s1.79-4,4-4c90.42,0,174.95,123.99,238.03,349.12&#xA;&#x9;&#x9;&#x9;c30.47,108.75,54.39,235.36,71.1,376.32c17.29,145.88,26.05,300.83,26.05,460.56c0,159.73-8.77,314.68-26.05,460.56&#xA;&#x9;&#x9;&#x9;c-16.71,140.96-40.62,267.57-71.1,376.32C2399.54,3037.86,2315,3161.85,2224.58,3161.85z"></path>
&#x9;</g>
</g>
<g>
&#x9;<g>
&#x9;&#x9;<path d="M2189.67,3161.85c-2.21,0-4-1.79-4-4s1.79-4,4-4c36.4,0,72.05-30.57,105.94-90.85c33.29-59.21,63.22-144.09,88.96-252.28&#xA;&#x9;&#x9;&#x9;c53.03-222.96,82.23-519.45,82.23-834.87c0-315.42-29.21-611.92-82.23-834.87c-25.73-108.19-55.66-193.07-88.96-252.28&#xA;&#x9;&#x9;&#x9;c-33.9-60.28-69.54-90.85-105.94-90.85c-2.21,0-4-1.79-4-4s1.79-4,4-4c77.13,0,149.11,124.04,202.69,349.27&#xA;&#x9;&#x9;&#x9;c53.17,223.54,82.45,520.7,82.45,836.72s-29.28,613.18-82.45,836.72C2338.79,3037.81,2266.81,3161.85,2189.67,3161.85z"></path>
&#x9;</g>
</g>
<g>
&#x9;<g>
&#x9;&#x9;<path d="M2154.77,3161.85c-2.21,0-4-1.79-4-4s1.79-4,4-4c14.54,0,29.24-7.66,43.68-22.78c14.53-15.21,28.88-38.02,42.64-67.79&#xA;&#x9;&#x9;&#x9;c27.38-59.24,52-144.16,73.16-252.4c43.6-223,67.61-519.56,67.61-835.03c0-315.47-24.01-612.03-67.61-835.03&#xA;&#x9;&#x9;&#x9;c-21.16-108.24-45.78-193.16-73.16-252.4c-13.76-29.77-28.11-52.58-42.64-67.79c-14.44-15.11-29.14-22.78-43.68-22.78&#xA;&#x9;&#x9;&#x9;c-2.21,0-4-1.79-4-4s1.79-4,4-4c32.89,0,64.38,32.03,93.58,95.21c27.65,59.82,52.46,145.36,73.75,254.22&#xA;&#x9;&#x9;&#x9;c43.7,223.49,67.76,520.59,67.76,836.57s-24.06,613.07-67.76,836.57c-21.28,108.87-46.1,194.4-73.75,254.22&#xA;&#x9;&#x9;&#x9;C2219.15,3129.81,2187.66,3161.85,2154.77,3161.85z"></path>
&#x9;</g>
</g>
<g>
&#x9;<g>
&#x9;&#x9;<path d="M2119.86,3161.85c-2.21,0-4-1.79-4-4s1.79-4,4-4c22.26,0,45.33-31.21,66.71-90.25c21.47-59.29,40.77-144.26,57.35-252.56&#xA;&#x9;&#x9;&#x9;c34.16-223.06,52.98-519.67,52.98-835.19s-18.82-612.14-52.98-835.19c-16.59-108.29-35.88-193.27-57.35-252.56&#xA;&#x9;&#x9;&#x9;c-21.38-59.04-44.45-90.25-66.71-90.25c-2.21,0-4-1.79-4-4s1.79-4,4-4c26.3,0,51.28,32.14,74.23,95.53&#xA;&#x9;&#x9;&#x9;c21.65,59.78,41.07,145.26,57.74,254.07c34.22,223.44,53.07,520.48,53.07,836.4c0,315.92-18.85,612.96-53.07,836.4&#xA;&#x9;&#x9;&#x9;c-16.67,108.81-36.09,194.29-57.74,254.07C2171.14,3129.71,2146.16,3161.85,2119.86,3161.85z"></path>
&#x9;</g>
</g>
<g>
&#x9;<g>
&#x9;&#x9;<path d="M2084.95,3161.85c-2.21,0-4-1.79-4-4s1.79-4,4-4c8.8,0,26.62-11.68,47.12-89.9c15.55-59.34,29.52-144.38,41.53-252.74&#xA;&#x9;&#x9;&#x9;c24.73-223.11,38.34-519.78,38.34-835.36c0-315.58-13.62-612.25-38.34-835.36c-12.01-108.36-25.98-193.39-41.53-252.74&#xA;&#x9;&#x9;&#x9;c-20.5-78.22-38.32-89.9-47.12-89.9c-2.21,0-4-1.79-4-4s1.79-4,4-4c20.01,0,37.95,31.36,54.86,95.87&#xA;&#x9;&#x9;&#x9;c15.65,59.72,29.69,145.14,41.74,253.89c24.76,223.39,38.39,520.37,38.39,836.24s-13.63,612.85-38.39,836.24&#xA;&#x9;&#x9;&#x9;c-12.05,108.75-26.1,194.17-41.74,253.89C2122.91,3130.49,2104.96,3161.85,2084.95,3161.85z"></path>
&#x9;</g>
</g>
<g>
&#x9;<g>
&#x9;&#x9;<path d="M2050.05,3161.85c-2.21,0-4-1.79-4-4s1.79-4,4-4c0.55,0,5.6-0.6,12.52-21.28c5.13-15.33,10.19-38.29,15.04-68.24&#xA;&#x9;&#x9;&#x9;c9.62-59.41,18.26-144.52,25.69-252.95c15.28-223.16,23.7-519.89,23.7-835.52c0-315.63-8.42-612.36-23.7-835.52&#xA;&#x9;&#x9;&#x9;c-7.43-108.43-16.07-193.53-25.69-252.95c-4.85-29.96-9.91-52.92-15.04-68.24c-6.92-20.69-11.97-21.28-12.52-21.28&#xA;&#x9;&#x9;&#x9;c-2.21,0-4-1.79-4-4s1.79-4,4-4c9.25,0,21.64,10.94,35.46,96.25c9.66,59.65,18.33,145,25.77,253.68&#xA;&#x9;&#x9;&#x9;c15.29,223.34,23.72,520.26,23.72,836.07s-8.42,612.73-23.72,836.07c-7.44,108.67-16.11,194.02-25.77,253.68&#xA;&#x9;&#x9;&#x9;C2071.69,3150.91,2059.3,3161.85,2050.05,3161.85z"></path>
&#x9;</g>
</g>
<g>
&#x9;<g>
&#x9;&#x9;<path d="M2015.14,3161.85c-2.21,0-4-1.79-4-4c0-1.54,0.87-2.88,2.15-3.55c3.04-5.73,12.29-49.49,20.07-357.06&#xA;&#x9;&#x9;&#x9;c5.6-221.5,8.68-513.21,8.68-821.39s-3.08-599.89-8.68-821.39c-7.77-307.57-17.02-351.33-20.07-357.06&#xA;&#x9;&#x9;&#x9;c-1.28-0.67-2.15-2.01-2.15-3.55c0-2.21,1.79-4,4-4c4.62,0,7.19,3.97,10.2,27.51c1.99,15.62,3.95,38.88,5.82,69.13&#xA;&#x9;&#x9;&#x9;c3.68,59.58,6.99,144.85,9.83,253.45c5.84,223.28,9.05,520.15,9.05,835.9c0,315.75-3.21,612.62-9.05,835.9&#xA;&#x9;&#x9;&#x9;c-2.84,108.6-6.14,193.87-9.83,253.45c-1.87,30.26-3.83,53.52-5.82,69.13C2022.33,3157.88,2019.76,3161.85,2015.14,3161.85z&#xA;&#x9;&#x9;&#x9; M2015.14,797.85L2015.14,797.85L2015.14,797.85z"></path>
&#x9;</g>
</g>
</svg>