<?xml version="1.0"?>

<svg fill="#FF2800" version="1.1" id="Layer_1" xmlns="http://www.w3.org/2000/svg" xmlns:xlink="http://www.w3.org/1999/xlink" x="0px" y="0px" viewBox="0 0 4000 4000" style="enable-background:new 0 0 4000 4000;" xml:space="preserve">


<g>
&#x9;<g>
&#x9;&#x9;<g>
&#x9;&#x9;&#x9;<path d="M1996.27,4004.32c-135.92,0-271.75-13.69-403.72-40.7c-128.62-26.32-255.14-65.59-376.04-116.73&#xA;&#x9;&#x9;&#x9;&#x9;c-118.7-50.21-233.19-112.35-340.29-184.7c-106.07-71.66-205.82-153.96-296.47-244.61s-172.95-190.4-244.61-296.47&#xA;&#x9;&#x9;&#x9;&#x9;c-72.35-107.09-134.49-221.58-184.7-340.29c-51.14-120.9-90.41-247.42-116.73-376.04C6.69,2272.8-7,2136.97-7,2001.05&#xA;&#x9;&#x9;&#x9;&#x9;c0-135.91,13.69-271.75,40.7-403.72c26.32-128.62,65.59-255.14,116.73-376.04c50.21-118.7,112.35-233.19,184.7-340.29&#xA;&#x9;&#x9;&#x9;&#x9;c71.66-106.08,153.96-205.82,244.61-296.47s190.4-172.95,296.47-244.61c107.09-72.35,221.58-134.49,340.29-184.7&#xA;&#x9;&#x9;&#x9;&#x9;c120.9-51.14,247.42-90.41,376.04-116.73c131.98-27.01,267.81-40.7,403.72-40.7c135.91,0,271.75,13.69,403.72,40.7&#xA;&#x9;&#x9;&#x9;&#x9;c128.62,26.32,255.14,65.59,376.04,116.73c118.7,50.21,233.19,112.35,340.29,184.7c106.08,71.66,205.82,153.96,296.47,244.61&#xA;&#x9;&#x9;&#x9;&#x9;s172.95,190.4,244.61,296.47c72.35,107.09,134.49,221.58,184.7,340.29c51.14,120.9,90.41,247.42,116.73,376.04&#xA;&#x9;&#x9;&#x9;&#x9;c27.01,131.98,40.7,267.81,40.7,403.72c0,135.92-13.69,271.75-40.7,403.72c-26.32,128.62-65.59,255.14-116.73,376.04&#xA;&#x9;&#x9;&#x9;&#x9;c-50.21,118.7-112.35,233.19-184.7,340.29c-71.66,106.08-153.96,205.82-244.61,296.47s-190.4,172.95-296.47,244.61&#xA;&#x9;&#x9;&#x9;&#x9;c-107.09,72.35-221.58,134.5-340.29,184.7c-120.9,51.14-247.42,90.41-376.04,116.73&#xA;&#x9;&#x9;&#x9;&#x9;C2268.02,3990.63,2132.18,4004.32,1996.27,4004.32z M1996.27,11.78C899.38,11.78,7,904.17,7,2001.05&#xA;&#x9;&#x9;&#x9;&#x9;s892.38,1989.27,1989.27,1989.27s1989.27-892.38,1989.27-1989.27S3093.16,11.78,1996.27,11.78z"></path>
&#x9;&#x9;</g>
&#x9;&#x9;<g>
&#x9;&#x9;&#x9;<path d="M1996.27,4004.32c-97.27,0-194.47-13.74-288.91-40.83c-92-26.39-182.48-65.77-268.93-117.03&#xA;&#x9;&#x9;&#x9;&#x9;c-84.82-50.3-166.62-112.54-243.12-184.99c-75.73-71.72-146.93-154.08-211.63-244.78c-64.67-90.66-123.37-190.41-174.49-296.47&#xA;&#x9;&#x9;&#x9;&#x9;c-51.59-107.05-95.89-221.48-131.68-340.11c-74.45-246.77-112.2-508.88-112.2-779.06c0-270.18,37.75-532.29,112.2-779.06&#xA;&#x9;&#x9;&#x9;&#x9;c35.79-118.63,80.1-233.06,131.68-340.11c51.11-106.06,109.82-205.81,174.49-296.47c64.7-90.7,135.9-173.06,211.63-244.78&#xA;&#x9;&#x9;&#x9;&#x9;c76.5-72.46,158.3-134.7,243.12-184.99c86.45-51.26,176.93-90.63,268.93-117.03C1801.8,11.52,1899-2.22,1996.27-2.22&#xA;&#x9;&#x9;&#x9;&#x9;s194.47,13.74,288.91,40.83c92,26.39,182.48,65.77,268.93,117.03c84.82,50.3,166.62,112.54,243.12,184.99&#xA;&#x9;&#x9;&#x9;&#x9;c75.73,71.72,146.93,154.08,211.63,244.78c64.67,90.66,123.37,190.4,174.49,296.47c51.59,107.05,95.89,221.48,131.68,340.11&#xA;&#x9;&#x9;&#x9;&#x9;c74.45,246.77,112.2,508.88,112.2,779.06c0,270.18-37.75,532.29-112.2,779.06c-35.79,118.63-80.1,233.07-131.68,340.11&#xA;&#x9;&#x9;&#x9;&#x9;c-51.11,106.06-109.82,205.81-174.49,296.47c-64.7,90.7-135.9,173.06-211.63,244.78c-76.5,72.46-158.3,134.7-243.12,184.99&#xA;&#x9;&#x9;&#x9;&#x9;c-86.45,51.26-176.93,90.64-268.93,117.03C2190.74,3990.59,2093.54,4004.32,1996.27,4004.32z M1996.27,11.78&#xA;&#x9;&#x9;&#x9;&#x9;c-378.03,0-733.59,206.61-1001.19,581.76c-268.11,375.87-415.77,875.73-415.77,1407.51s147.66,1031.64,415.77,1407.51&#xA;&#x9;&#x9;&#x9;&#x9;c267.6,375.15,623.17,581.76,1001.19,581.76s733.59-206.61,1001.19-581.76c268.11-375.87,415.77-875.73,415.77-1407.51&#xA;&#x9;&#x9;&#x9;&#x9;S3265.58,969.41,2997.46,593.54C2729.86,218.39,2374.3,11.78,1996.27,11.78z"></path>
&#x9;&#x9;</g>
&#x9;&#x9;<g>
&#x9;&#x9;&#x9;<path d="M1996.27,4004.32c-58.84,0-117.61-13.88-174.67-41.25c-55.39-26.57-109.81-66.15-161.76-117.66&#xA;&#x9;&#x9;&#x9;&#x9;c-50.84-50.4-99.84-112.74-145.66-185.29c-45.3-71.73-87.88-154.08-126.56-244.75c-78.42-183.82-139.98-397.81-182.97-636.04&#xA;&#x9;&#x9;&#x9;&#x9;c-44.48-246.52-67.04-508.37-67.04-778.28c0-269.91,22.55-531.76,67.04-778.28c42.99-238.23,104.55-452.22,182.97-636.04&#xA;&#x9;&#x9;&#x9;&#x9;c38.69-90.68,81.27-173.02,126.56-244.75c45.81-72.54,94.82-134.88,145.66-185.29c51.95-51.51,106.38-91.09,161.76-117.66&#xA;&#x9;&#x9;&#x9;&#x9;c57.06-27.37,115.83-41.25,174.67-41.25c58.84,0,117.61,13.88,174.66,41.25c55.39,26.57,109.81,66.15,161.76,117.66&#xA;&#x9;&#x9;&#x9;&#x9;c50.84,50.4,99.84,112.74,145.66,185.29c45.29,71.73,87.88,154.08,126.56,244.75c78.42,183.82,139.98,397.81,182.97,636.04&#xA;&#x9;&#x9;&#x9;&#x9;c44.48,246.52,67.04,508.37,67.04,778.28c0,269.91-22.55,531.76-67.04,778.28c-42.99,238.23-104.55,452.23-182.97,636.04&#xA;&#x9;&#x9;&#x9;&#x9;c-38.69,90.68-81.27,173.02-126.56,244.75c-45.81,72.54-94.82,134.89-145.66,185.29c-51.95,51.51-106.38,91.09-161.76,117.66&#xA;&#x9;&#x9;&#x9;&#x9;C2113.88,3990.45,2055.11,4004.32,1996.27,4004.32z M1996.27,11.78c-113.06,0-222.94,52.1-326.57,154.85&#xA;&#x9;&#x9;&#x9;&#x9;c-100.77,99.9-191.34,243.09-269.2,425.59c-160.49,376.2-248.88,876.53-248.88,1408.83s88.39,1032.63,248.88,1408.83&#xA;&#x9;&#x9;&#x9;&#x9;c77.86,182.5,168.43,325.69,269.2,425.59c103.64,102.75,213.51,154.85,326.57,154.85s222.94-52.1,326.57-154.85&#xA;&#x9;&#x9;&#x9;&#x9;c100.77-99.91,191.34-243.1,269.2-425.59c160.49-376.2,248.88-876.53,248.88-1408.83s-88.39-1032.63-248.88-1408.83&#xA;&#x9;&#x9;&#x9;&#x9;c-77.86-182.5-168.43-325.69-269.2-425.59C2219.21,63.88,2109.33,11.78,1996.27,11.78z"></path>
&#x9;&#x9;</g>
&#x9;&#x9;<g>
&#x9;&#x9;&#x9;<path d="M1996.27,4004.32c-21.4,0-42.29-14.67-62.08-43.61c-18.3-26.77-36.24-66.49-53.3-118.07&#xA;&#x9;&#x9;&#x9;&#x9;c-33.4-100.94-63.37-245.3-89.08-429.05c-52.8-377.36-81.89-879.01-81.89-1412.55s29.08-1035.19,81.89-1412.55&#xA;&#x9;&#x9;&#x9;&#x9;c25.71-183.75,55.68-328.1,89.08-429.05c17.06-51.58,35-91.3,53.3-118.07c19.79-28.94,40.67-43.61,62.08-43.61&#xA;&#x9;&#x9;&#x9;&#x9;s42.29,14.67,62.07,43.61c18.31,26.77,36.24,66.49,53.3,118.07c33.4,100.94,63.37,245.3,89.08,429.05&#xA;&#x9;&#x9;&#x9;&#x9;c52.8,377.36,81.88,879.01,81.88,1412.55s-29.08,1035.19-81.88,1412.55c-25.71,183.75-55.68,328.1-89.08,429.05&#xA;&#x9;&#x9;&#x9;&#x9;c-17.06,51.58-35,91.3-53.3,118.07C2038.56,3989.65,2017.67,4004.32,1996.27,4004.32z M1996.27,11.78&#xA;&#x9;&#x9;&#x9;&#x9;c-23.62,0-60.5,26.38-102.09,152.08c-33.13,100.15-62.91,243.67-88.51,426.59c-52.72,376.73-81.75,877.7-81.75,1410.61&#xA;&#x9;&#x9;&#x9;&#x9;s29.03,1033.87,81.75,1410.61c25.6,182.92,55.37,326.44,88.51,426.59c41.58,125.69,78.47,152.08,102.09,152.08&#xA;&#x9;&#x9;&#x9;&#x9;s60.5-26.38,102.09-152.08c33.13-100.15,62.91-243.67,88.5-426.59c52.72-376.73,81.75-877.7,81.75-1410.61&#xA;&#x9;&#x9;&#x9;&#x9;s-29.03-1033.87-81.75-1410.61c-25.6-182.92-55.37-326.44-88.5-426.59C2056.77,38.17,2019.89,11.78,1996.27,11.78z"></path>
&#x9;&#x9;</g>
&#x9;</g>
&#x9;<g>
&#x9;&#x9;<path d="M1996.27,2233.55c-533.48,0-1035.06-23.47-1412.36-66.09c-183.68-20.75-327.96-44.93-428.84-71.87&#xA;&#x9;&#x9;&#x9;C46.01,2066.46-7,2035.54-7,2001.05s53.01-65.41,162.07-94.54c100.88-26.94,245.16-51.12,428.84-71.87&#xA;&#x9;&#x9;&#x9;c377.3-42.62,878.88-66.09,1412.36-66.09s1035.06,23.47,1412.36,66.09c183.68,20.75,327.96,44.93,428.84,71.87&#xA;&#x9;&#x9;&#x9;c109.06,29.12,162.07,60.05,162.07,94.54s-53.01,65.41-162.07,94.54c-100.88,26.94-245.16,51.12-428.84,71.87&#xA;&#x9;&#x9;&#x9;C3031.33,2210.08,2529.75,2233.55,1996.27,2233.55z M1996.27,1782.56c-532.97,0-1034,23.44-1410.79,66&#xA;&#x9;&#x9;&#x9;c-182.99,20.67-326.59,44.72-426.8,71.48C26.71,1955.29,7,1985.93,7,2001.05c0,15.13,19.71,45.76,151.68,81.01&#xA;&#x9;&#x9;&#x9;c100.21,26.76,243.81,50.81,426.8,71.48c376.79,42.56,877.82,66,1410.79,66s1034-23.44,1410.79-66&#xA;&#x9;&#x9;&#x9;c182.99-20.67,326.59-44.72,426.8-71.48c131.98-35.25,151.68-65.88,151.68-81.01c0-15.13-19.71-45.76-151.68-81.01&#xA;&#x9;&#x9;&#x9;c-100.21-26.76-243.81-50.81-426.8-71.48C3030.27,1806,2529.24,1782.56,1996.27,1782.56z"></path>
&#x9;</g>
&#x9;<g>
&#x9;&#x9;<path d="M1996.27,1155.8c-462.6,0-897.54-13.83-1224.7-38.94c-159.23-12.22-284.3-26.46-371.73-42.33&#xA;&#x9;&#x9;&#x9;c-44.6-8.09-78.95-16.6-102.08-25.28c-27.09-10.16-39.71-20.75-39.71-33.33s12.62-23.17,39.71-33.33&#xA;&#x9;&#x9;&#x9;c23.14-8.68,57.48-17.18,102.08-25.28c87.43-15.87,212.5-30.11,371.73-42.33c327.16-25.11,762.1-38.94,1224.7-38.94&#xA;&#x9;&#x9;&#x9;c462.6,0,897.54,13.83,1224.7,38.94c159.23,12.22,284.3,26.46,371.73,42.33c44.6,8.09,78.95,16.6,102.08,25.28&#xA;&#x9;&#x9;&#x9;c27.09,10.16,39.71,20.75,39.71,33.33s-12.62,23.17-39.71,33.33c-23.14,8.68-57.48,17.18-102.08,25.28&#xA;&#x9;&#x9;&#x9;c-87.43,15.87-212.5,30.11-371.73,42.33C2893.81,1141.98,2458.87,1155.8,1996.27,1155.8z M1996.27,890.06&#xA;&#x9;&#x9;&#x9;c-462.26,0-896.82,13.81-1223.63,38.9c-158.75,12.18-283.34,26.36-370.3,42.14c-43.78,7.94-77.31,16.22-99.67,24.61&#xA;&#x9;&#x9;&#x9;c-29.15,10.94-30.63,18.77-30.63,20.22s1.48,9.29,30.63,20.22c22.35,8.38,55.89,16.66,99.67,24.61&#xA;&#x9;&#x9;&#x9;c86.96,15.78,211.55,29.96,370.3,42.14c326.81,25.08,761.37,38.9,1223.63,38.9c462.26,0,896.82-13.81,1223.63-38.9&#xA;&#x9;&#x9;&#x9;c158.75-12.18,283.34-26.36,370.3-42.14c43.78-7.94,77.31-16.22,99.67-24.61c29.15-10.93,30.63-18.77,30.63-20.22&#xA;&#x9;&#x9;&#x9;s-1.48-9.29-30.63-20.22c-22.35-8.38-55.89-16.66-99.67-24.61c-86.96-15.78-211.55-29.96-370.3-42.14&#xA;&#x9;&#x9;&#x9;C2893.09,903.87,2458.53,890.06,1996.27,890.06z"></path>
&#x9;</g>
&#x9;<g>
&#x9;&#x9;<path d="M1996.27,253.43c-242.33,0-470.16-2.22-641.52-6.24c-83.37-1.96-148.85-4.24-194.61-6.78&#xA;&#x9;&#x9;&#x9;c-23.29-1.29-41.21-2.65-53.26-4.03c-15.27-1.75-24.63-3.23-24.63-11.25s9.36-9.5,24.63-11.25c12.05-1.38,29.97-2.74,53.26-4.03&#xA;&#x9;&#x9;&#x9;c45.76-2.54,111.23-4.82,194.61-6.78c171.37-4.03,399.2-6.24,641.52-6.24c242.33,0,470.16,2.22,641.52,6.24&#xA;&#x9;&#x9;&#x9;c83.37,1.96,148.85,4.24,194.61,6.78c23.29,1.29,41.21,2.65,53.26,4.03c15.27,1.75,24.63,3.23,24.63,11.25s-9.36,9.5-24.63,11.25&#xA;&#x9;&#x9;&#x9;c-12.05,1.38-29.97,2.74-53.26,4.03c-45.76,2.54-111.23,4.82-194.61,6.78C2466.43,251.21,2238.6,253.43,1996.27,253.43z&#xA;&#x9;&#x9;&#x9; M1139.26,225.12c37.94,2.57,106.77,5.64,231.58,8.43c169.32,3.79,391.44,5.88,625.43,5.88s456.11-2.09,625.43-5.88&#xA;&#x9;&#x9;&#x9;c124.81-2.79,193.65-5.86,231.58-8.43c-37.94-2.57-106.77-5.64-231.58-8.43c-169.33-3.79-391.44-5.88-625.43-5.88&#xA;&#x9;&#x9;&#x9;s-456.11,2.09-625.43,5.88C1246.02,219.48,1177.19,222.55,1139.26,225.12z M2899.17,230.37L2899.17,230.37L2899.17,230.37z"></path>
&#x9;</g>
&#x9;<g>
&#x9;&#x9;<path d="M1996.27,3126.05c-462.6,0-897.54-13.83-1224.7-38.94c-159.23-12.22-284.3-26.46-371.73-42.33&#xA;&#x9;&#x9;&#x9;c-44.6-8.09-78.95-16.6-102.08-25.28c-27.09-10.16-39.71-20.75-39.71-33.33s12.62-23.17,39.71-33.33&#xA;&#x9;&#x9;&#x9;c23.14-8.68,57.48-17.18,102.08-25.28c87.43-15.87,212.5-30.11,371.73-42.33c327.16-25.11,762.1-38.94,1224.7-38.94&#xA;&#x9;&#x9;&#x9;s897.54,13.83,1224.7,38.94c159.23,12.22,284.3,26.46,371.73,42.33c44.6,8.09,78.95,16.6,102.08,25.28&#xA;&#x9;&#x9;&#x9;c27.09,10.16,39.71,20.75,39.71,33.33s-12.62,23.17-39.71,33.33c-23.14,8.68-57.48,17.18-102.08,25.28&#xA;&#x9;&#x9;&#x9;c-87.43,15.87-212.5,30.11-371.73,42.33C2893.81,3112.22,2458.87,3126.05,1996.27,3126.05z M1996.27,2860.3&#xA;&#x9;&#x9;&#x9;c-462.26,0-896.82,13.81-1223.63,38.9c-158.76,12.18-283.34,26.36-370.3,42.14c-43.78,7.94-77.31,16.22-99.67,24.61&#xA;&#x9;&#x9;&#x9;c-29.15,10.93-30.63,18.77-30.63,20.22s1.48,9.29,30.63,20.22c22.35,8.38,55.89,16.66,99.67,24.61&#xA;&#x9;&#x9;&#x9;c86.96,15.78,211.55,29.96,370.3,42.14c326.81,25.08,761.37,38.9,1223.63,38.9s896.82-13.81,1223.63-38.9&#xA;&#x9;&#x9;&#x9;c158.75-12.18,283.34-26.36,370.3-42.14c43.78-7.94,77.31-16.22,99.67-24.61c29.15-10.93,30.63-18.77,30.63-20.22&#xA;&#x9;&#x9;&#x9;s-1.48-9.29-30.63-20.22c-22.35-8.38-55.89-16.66-99.67-24.61c-86.96-15.78-211.55-29.96-370.3-42.14&#xA;&#x9;&#x9;&#x9;C2893.09,2874.12,2458.53,2860.3,1996.27,2860.3z"></path>
&#x9;</g>
&#x9;<g>
&#x9;&#x9;<path d="M1996.27,3805.4c-242.33,0-470.16-2.22-641.52-6.24c-83.37-1.96-148.85-4.24-194.61-6.78&#xA;&#x9;&#x9;&#x9;c-23.29-1.29-41.21-2.65-53.26-4.03c-15.27-1.75-24.63-3.23-24.63-11.25c0-8.01,9.36-9.5,24.63-11.25&#xA;&#x9;&#x9;&#x9;c12.05-1.38,29.97-2.74,53.26-4.03c45.76-2.54,111.23-4.82,194.61-6.78c171.37-4.03,399.2-6.24,641.52-6.24&#xA;&#x9;&#x9;&#x9;s470.15,2.22,641.52,6.24c83.37,1.96,148.85,4.24,194.61,6.78c23.29,1.29,41.21,2.65,53.26,4.03&#xA;&#x9;&#x9;&#x9;c15.27,1.75,24.63,3.23,24.63,11.25c0,8.01-9.36,9.5-24.63,11.25c-12.05,1.38-29.97,2.74-53.26,4.03&#xA;&#x9;&#x9;&#x9;c-45.76,2.54-111.23,4.82-194.61,6.78C2466.43,3803.18,2238.6,3805.4,1996.27,3805.4z M1139.26,3777.09&#xA;&#x9;&#x9;&#x9;c37.94,2.57,106.77,5.64,231.58,8.43c169.33,3.79,391.44,5.88,625.43,5.88c233.99,0,456.11-2.09,625.43-5.88&#xA;&#x9;&#x9;&#x9;c124.81-2.79,193.64-5.86,231.58-8.43c-37.94-2.57-106.78-5.64-231.58-8.43c-169.33-3.79-391.44-5.88-625.43-5.88&#xA;&#x9;&#x9;&#x9;s-456.1,2.09-625.43,5.88C1246.04,3771.46,1177.2,3774.52,1139.26,3777.09z"></path>
&#x9;</g>
</g>
</svg>