<?xml version="1.0"?>

<svg fill="#FFFFFF" version="1.1" id="Layer_1" xmlns="http://www.w3.org/2000/svg" xmlns:xlink="http://www.w3.org/1999/xlink" x="0px" y="0px" viewBox="0 0 4000 4000" style="enable-background:new 0 0 4000 4000;" xml:space="preserve">


<g>
&#x9;<g>
&#x9;&#x9;<g>
&#x9;&#x9;&#x9;<path d="M2000,4006c-136.1,0-272.12-13.71-404.27-40.75c-128.8-26.36-255.49-65.68-376.56-116.89&#xA;&#x9;&#x9;&#x9;&#x9;c-118.86-50.28-233.51-112.5-340.75-184.95c-106.22-71.76-206.1-154.17-296.88-244.95c-90.77-90.77-173.19-190.66-244.95-296.88&#xA;&#x9;&#x9;&#x9;&#x9;c-72.45-107.24-134.68-221.89-184.95-340.75c-51.21-121.06-90.53-247.75-116.89-376.55C7.71,2272.12-6,2136.1-6,2000&#xA;&#x9;&#x9;&#x9;&#x9;s13.71-272.12,40.75-404.27c26.36-128.8,65.68-255.49,116.89-376.56c50.28-118.86,112.5-233.51,184.95-340.75&#xA;&#x9;&#x9;&#x9;&#x9;c71.76-106.22,154.17-206.1,244.95-296.88c90.77-90.77,190.66-173.19,296.88-244.95c107.24-72.45,221.89-134.68,340.75-184.95&#xA;&#x9;&#x9;&#x9;&#x9;c121.06-51.21,247.76-90.53,376.56-116.89C1727.88,7.71,1863.9-6,2000-6s272.12,13.71,404.27,40.75&#xA;&#x9;&#x9;&#x9;&#x9;c128.8,26.36,255.49,65.68,376.55,116.89c118.87,50.28,233.51,112.5,340.75,184.95c106.22,71.76,206.1,154.17,296.88,244.95&#xA;&#x9;&#x9;&#x9;&#x9;c90.77,90.77,173.19,190.66,244.95,296.88c72.45,107.24,134.68,221.89,184.95,340.75c51.21,121.06,90.53,247.76,116.89,376.56&#xA;&#x9;&#x9;&#x9;&#x9;C3992.29,1727.88,4006,1863.9,4006,2000s-13.71,272.12-40.75,404.27c-26.36,128.8-65.68,255.49-116.89,376.55&#xA;&#x9;&#x9;&#x9;&#x9;c-50.28,118.87-112.5,233.51-184.95,340.75c-71.76,106.22-154.17,206.1-244.95,296.88s-190.66,173.19-296.88,244.95&#xA;&#x9;&#x9;&#x9;&#x9;c-107.24,72.45-221.89,134.68-340.75,184.95c-121.06,51.21-247.75,90.53-376.55,116.89C2272.12,3992.29,2136.1,4006,2000,4006z&#xA;&#x9;&#x9;&#x9;&#x9; M2000,6C900.5,6,6,900.5,6,2000s894.5,1994,1994,1994s1994-894.5,1994-1994S3099.5,6,2000,6z"></path>
&#x9;&#x9;</g>
&#x9;&#x9;<g>
&#x9;&#x9;&#x9;<path d="M2000,3565.88c-135.79,0-271.73-11.04-404.04-32.8c-128.49-21.14-255.12-52.64-376.37-93.63&#xA;&#x9;&#x9;&#x9;&#x9;c-118.6-40.1-233.21-89.66-340.64-147.3c-106.03-56.9-205.92-122.11-296.87-193.84c-90.68-71.51-173.13-149.99-245.04-233.26&#xA;&#x9;&#x9;&#x9;&#x9;c-72.45-83.88-134.73-173.24-185.12-265.57c-51.26-93.92-90.65-191.75-117.07-290.75C7.74,2207.18-6,2103.31-6,2000&#xA;&#x9;&#x9;&#x9;&#x9;s13.74-207.18,40.84-308.72c26.42-99.01,65.81-196.83,117.07-290.76c50.39-92.34,112.68-181.7,185.12-265.59&#xA;&#x9;&#x9;&#x9;&#x9;c71.92-83.27,154.36-161.76,245.04-233.28c90.96-71.73,190.84-136.96,296.87-193.86c107.43-57.65,222.04-107.21,340.64-147.32&#xA;&#x9;&#x9;&#x9;&#x9;c121.25-40.99,247.87-72.5,376.37-93.64c132.31-21.77,268.25-32.8,404.04-32.8c135.79,0,271.73,11.04,404.04,32.8&#xA;&#x9;&#x9;&#x9;&#x9;c128.49,21.14,255.12,52.64,376.37,93.64c118.6,40.1,233.21,89.66,340.64,147.32c106.03,56.9,205.92,122.12,296.87,193.86&#xA;&#x9;&#x9;&#x9;&#x9;c90.68,71.52,173.13,150,245.04,233.28c72.45,83.89,134.73,173.24,185.12,265.59c51.26,93.93,90.65,191.75,117.07,290.76&#xA;&#x9;&#x9;&#x9;&#x9;c27.1,101.54,40.84,205.4,40.84,308.72s-13.74,207.18-40.84,308.71c-26.42,99-65.81,196.83-117.07,290.75&#xA;&#x9;&#x9;&#x9;&#x9;c-50.39,92.34-112.68,181.69-185.12,265.57c-71.92,83.27-154.36,161.75-245.04,233.26c-90.96,71.73-190.84,136.95-296.87,193.84&#xA;&#x9;&#x9;&#x9;&#x9;c-107.43,57.65-222.04,107.21-340.64,147.3c-121.25,40.99-247.87,72.49-376.37,93.63&#xA;&#x9;&#x9;&#x9;&#x9;C2271.73,3554.84,2135.79,3565.88,2000,3565.88z M2000,446.05c-529.33,0-1030.25,165.15-1410.5,465.03&#xA;&#x9;&#x9;&#x9;&#x9;C218.68,1203.54,6,1600.43,6,2000c0,399.56,212.68,796.45,583.5,1088.88c380.24,299.86,881.16,465,1410.5,465&#xA;&#x9;&#x9;&#x9;&#x9;s1030.26-165.14,1410.5-465C3781.32,2796.45,3994,2399.56,3994,2000c0-399.57-212.68-796.46-583.5-1088.92&#xA;&#x9;&#x9;&#x9;&#x9;C3030.25,611.2,2529.33,446.05,2000,446.05z"></path>
&#x9;&#x9;</g>
&#x9;&#x9;<g>
&#x9;&#x9;&#x9;<path d="M2000,3125.76c-267.96,0-530.37-32.04-779.96-95.24c-118.16-29.92-232.71-66.81-340.47-109.66&#xA;&#x9;&#x9;&#x9;&#x9;c-105.67-42.01-205.52-90.02-296.78-142.7c-90.45-52.21-172.91-109.25-245.07-169.55c-72.38-60.48-134.73-124.49-185.31-190.27&#xA;&#x9;&#x9;&#x9;&#x9;c-51.34-66.77-90.83-135.72-117.38-204.93C7.81,2142.42-6,2070.62-6,2000s13.8-142.43,41.03-213.42&#xA;&#x9;&#x9;&#x9;&#x9;c26.55-69.22,66.04-138.18,117.38-204.95c50.58-65.78,112.93-129.81,185.31-190.29c72.16-60.3,154.61-117.35,245.07-169.57&#xA;&#x9;&#x9;&#x9;&#x9;c91.26-52.68,191.11-100.7,296.78-142.72c107.77-42.86,222.32-79.76,340.47-109.68c249.59-63.21,512.01-95.26,779.96-95.26&#xA;&#x9;&#x9;&#x9;&#x9;s530.37,32.05,779.96,95.26c118.16,29.92,232.71,66.82,340.47,109.68c105.67,42.02,205.52,90.04,296.78,142.72&#xA;&#x9;&#x9;&#x9;&#x9;c90.45,52.22,172.91,109.27,245.07,169.57c72.38,60.49,134.73,124.51,185.31,190.29c51.34,66.77,90.83,135.73,117.38,204.95&#xA;&#x9;&#x9;&#x9;&#x9;c27.23,70.99,41.03,142.79,41.03,213.42s-13.8,142.42-41.03,213.41c-26.55,69.22-66.04,138.17-117.38,204.93&#xA;&#x9;&#x9;&#x9;&#x9;c-50.58,65.78-112.93,129.79-185.31,190.27c-72.16,60.29-154.61,117.34-245.07,169.55c-91.25,52.67-191.1,100.68-296.78,142.7&#xA;&#x9;&#x9;&#x9;&#x9;c-107.76,42.85-222.32,79.74-340.47,109.66C2530.37,3093.71,2267.96,3125.76,2000,3125.76z M2000,886.1&#xA;&#x9;&#x9;&#x9;&#x9;c-523.49,0-1024.67,122.9-1411.21,346.05C218.42,1445.97,6,1725.84,6,2000c0,274.15,212.42,553.99,582.79,767.77&#xA;&#x9;&#x9;&#x9;&#x9;c386.53,223.11,887.71,345.98,1411.21,345.98s1024.68-122.87,1411.21-345.98C3781.58,2553.99,3994,2274.15,3994,2000&#xA;&#x9;&#x9;&#x9;&#x9;c0-274.16-212.42-554.03-582.79-767.84C3024.67,1009,2523.49,886.1,2000,886.1z"></path>
&#x9;&#x9;</g>
&#x9;&#x9;<g>
&#x9;&#x9;&#x9;<path d="M2000,2685.64c-264.6,0-526.86-21.56-779.49-64.08c-117.23-19.73-231.7-43.97-340.24-72.03&#xA;&#x9;&#x9;&#x9;&#x9;c-104.83-27.11-204.61-57.91-296.55-91.54C214.46,2322.9-6,2151.69-6,2000c0-151.7,220.46-322.95,589.72-458.09&#xA;&#x9;&#x9;&#x9;&#x9;c91.95-33.65,191.72-64.46,296.55-91.58c108.54-28.08,223.01-52.33,340.24-72.07c252.63-42.54,514.89-64.11,779.49-64.11&#xA;&#x9;&#x9;&#x9;&#x9;c264.6,0,526.86,21.57,779.49,64.11c117.23,19.74,231.7,43.99,340.24,72.07c104.83,27.12,204.61,57.93,296.55,91.58&#xA;&#x9;&#x9;&#x9;&#x9;C3785.54,1677.05,4006,1848.3,4006,2000c0,151.69-220.46,322.9-589.72,457.98c-91.94,33.63-191.72,64.43-296.55,91.54&#xA;&#x9;&#x9;&#x9;&#x9;c-108.54,28.07-223.01,52.3-340.23,72.03C2526.86,2664.08,2264.6,2685.64,2000,2685.64z M2000,1326.16&#xA;&#x9;&#x9;&#x9;&#x9;c-510.59,0-1012.1,80.63-1412.15,227.03c-177.88,65.1-325.54,140.74-427.02,218.75C59.54,1849.8,6,1928.66,6,2000&#xA;&#x9;&#x9;&#x9;&#x9;c0,71.33,53.54,150.19,154.83,228.03c101.48,77.99,249.14,153.61,427.02,218.68c400.02,146.33,901.53,226.92,1412.15,226.92&#xA;&#x9;&#x9;&#x9;&#x9;s1012.13-80.59,1412.15-226.92c177.88-65.07,325.55-140.69,427.02-218.68C3940.46,2150.19,3994,2071.33,3994,2000&#xA;&#x9;&#x9;&#x9;&#x9;c0-71.34-53.54-150.2-154.83-228.06c-101.48-78.01-249.14-153.66-427.02-218.75C3012.1,1406.78,2510.59,1326.16,2000,1326.16z"></path>
&#x9;&#x9;</g>
&#x9;&#x9;<g>
&#x9;&#x9;&#x9;<path d="M2000,2245.51c-254.76,0-516.85-11.09-778.99-32.96c-218.05-18.19-432.08-43.39-636.14-74.9&#xA;&#x9;&#x9;&#x9;&#x9;c-161.66-24.96-314.05-53.71-429.08-80.93c-48.71-11.53-89.17-22.44-117.02-31.57C-2.58,2011.61-6,2005.53-6,2000&#xA;&#x9;&#x9;&#x9;&#x9;c0-5.53,3.42-11.61,44.76-25.17c27.85-9.14,68.32-20.06,117.02-31.6c115.05-27.26,267.43-56.03,429.08-81.02&#xA;&#x9;&#x9;&#x9;&#x9;c204.07-31.55,418.1-56.79,636.14-75c262.14-21.9,524.23-33,778.99-33c254.75,0,516.84,11.1,778.99,33&#xA;&#x9;&#x9;&#x9;&#x9;c218.04,18.21,432.07,43.45,636.14,75c161.65,24.99,314.04,53.77,429.08,81.02c48.71,11.54,89.17,22.47,117.02,31.6&#xA;&#x9;&#x9;&#x9;&#x9;c41.34,13.56,44.76,19.64,44.76,25.17c0,5.53-3.42,11.61-44.76,25.16c-27.85,9.13-68.32,20.04-117.02,31.57&#xA;&#x9;&#x9;&#x9;&#x9;c-115.03,27.22-267.42,55.96-429.08,80.93c-204.06,31.51-418.09,56.71-636.14,74.9C2516.85,2234.43,2254.76,2245.51,2000,2245.51&#xA;&#x9;&#x9;&#x9;&#x9;z M7.99,2000c10.9,6.7,54.98,23.01,166.35,48.74c117.34,27.11,270.37,55.49,430.91,79.9&#xA;&#x9;&#x9;&#x9;&#x9;c314.67,47.84,812.08,104.88,1394.76,104.88s1080.09-57.03,1394.76-104.88c160.54-24.41,313.57-52.78,430.91-79.9&#xA;&#x9;&#x9;&#x9;&#x9;c111.37-25.73,155.45-42.04,166.35-48.74c-10.9-6.71-54.97-23.02-166.34-48.78c-117.35-27.15-270.38-55.55-430.9-79.99&#xA;&#x9;&#x9;&#x9;&#x9;c-314.68-47.91-812.11-105.02-1394.77-105.02s-1080.08,57.11-1394.77,105.02c-160.52,24.44-313.55,52.85-430.9,79.99&#xA;&#x9;&#x9;&#x9;&#x9;C62.96,1976.98,18.88,1993.29,7.99,2000z M3994.54,2001.97L3994.54,2001.97L3994.54,2001.97z"></path>
&#x9;&#x9;</g>
&#x9;</g>
&#x9;<g>
&#x9;&#x9;<g>
&#x9;&#x9;&#x9;<path d="M2000,4006c-136.1,0-272.12-13.71-404.27-40.75c-128.8-26.36-255.49-65.68-376.56-116.89&#xA;&#x9;&#x9;&#x9;&#x9;c-118.86-50.28-233.51-112.5-340.75-184.95c-106.22-71.76-206.1-154.17-296.88-244.95c-90.77-90.77-173.19-190.66-244.95-296.88&#xA;&#x9;&#x9;&#x9;&#x9;c-72.45-107.24-134.68-221.89-184.95-340.75c-51.21-121.06-90.53-247.75-116.89-376.55C7.71,2272.12-6,2136.1-6,2000&#xA;&#x9;&#x9;&#x9;&#x9;s13.71-272.12,40.75-404.27c26.36-128.8,65.68-255.49,116.89-376.56c50.28-118.86,112.5-233.51,184.95-340.75&#xA;&#x9;&#x9;&#x9;&#x9;c71.76-106.22,154.17-206.1,244.95-296.88c90.77-90.77,190.66-173.19,296.88-244.95c107.24-72.45,221.89-134.68,340.75-184.95&#xA;&#x9;&#x9;&#x9;&#x9;c121.06-51.21,247.76-90.53,376.56-116.89C1727.88,7.71,1863.9-6,2000-6s272.12,13.71,404.27,40.75&#xA;&#x9;&#x9;&#x9;&#x9;c128.8,26.36,255.49,65.68,376.55,116.89c118.87,50.28,233.51,112.5,340.75,184.95c106.22,71.76,206.1,154.17,296.88,244.95&#xA;&#x9;&#x9;&#x9;&#x9;c90.77,90.77,173.19,190.66,244.95,296.88c72.45,107.24,134.68,221.89,184.95,340.75c51.21,121.06,90.53,247.76,116.89,376.56&#xA;&#x9;&#x9;&#x9;&#x9;C3992.29,1727.88,4006,1863.9,4006,2000s-13.71,272.12-40.75,404.27c-26.36,128.8-65.68,255.49-116.89,376.55&#xA;&#x9;&#x9;&#x9;&#x9;c-50.28,118.87-112.5,233.51-184.95,340.75c-71.76,106.22-154.17,206.1-244.95,296.88s-190.66,173.19-296.88,244.95&#xA;&#x9;&#x9;&#x9;&#x9;c-107.24,72.45-221.89,134.68-340.75,184.95c-121.06,51.21-247.75,90.53-376.55,116.89C2272.12,3992.29,2136.1,4006,2000,4006z&#xA;&#x9;&#x9;&#x9;&#x9; M2000,6C900.5,6,6,900.5,6,2000s894.5,1994,1994,1994s1994-894.5,1994-1994S3099.5,6,2000,6z"></path>
&#x9;&#x9;</g>
&#x9;&#x9;<g>
&#x9;&#x9;&#x9;<path d="M2000,4006c-103.31,0-207.18-13.74-308.71-40.84c-99-26.42-196.83-65.81-290.75-117.07&#xA;&#x9;&#x9;&#x9;&#x9;c-92.34-50.39-181.69-112.68-265.57-185.12c-83.27-71.92-161.75-154.36-233.26-245.04c-71.73-90.96-136.95-190.84-193.84-296.87&#xA;&#x9;&#x9;&#x9;&#x9;c-57.65-107.43-107.21-222.04-147.3-340.64c-40.99-121.25-72.49-247.87-93.63-376.37c-21.76-132.31-32.8-268.25-32.8-404.04&#xA;&#x9;&#x9;&#x9;&#x9;s11.04-271.73,32.8-404.04c21.14-128.49,52.64-255.12,93.63-376.37c40.1-118.6,89.66-233.21,147.3-340.64&#xA;&#x9;&#x9;&#x9;&#x9;c56.9-106.03,122.12-205.92,193.84-296.87c71.51-90.68,149.99-173.13,233.26-245.04c83.88-72.45,173.24-134.73,265.57-185.12&#xA;&#x9;&#x9;&#x9;&#x9;c93.92-51.26,191.75-90.65,290.75-117.07C1792.82,7.74,1896.69-6,2000-6s207.18,13.74,308.72,40.84&#xA;&#x9;&#x9;&#x9;&#x9;c99.01,26.42,196.83,65.81,290.76,117.07c92.34,50.39,181.7,112.68,265.59,185.12c83.27,71.92,161.76,154.36,233.28,245.04&#xA;&#x9;&#x9;&#x9;&#x9;c71.73,90.96,136.96,190.84,193.86,296.87c57.65,107.43,107.21,222.04,147.32,340.64c40.99,121.25,72.5,247.87,93.64,376.37&#xA;&#x9;&#x9;&#x9;&#x9;c21.77,132.31,32.8,268.25,32.8,404.04c0,135.79-11.04,271.73-32.8,404.04c-21.14,128.49-52.64,255.12-93.64,376.37&#xA;&#x9;&#x9;&#x9;&#x9;c-40.1,118.6-89.67,233.21-147.32,340.64c-56.9,106.03-122.12,205.92-193.86,296.87c-71.52,90.68-150,173.13-233.28,245.04&#xA;&#x9;&#x9;&#x9;&#x9;c-83.89,72.45-173.24,134.73-265.59,185.12c-93.93,51.26-191.75,90.65-290.76,117.07C2207.18,3992.26,2103.31,4006,2000,4006z&#xA;&#x9;&#x9;&#x9;&#x9; M2000,6c-399.56,0-796.45,212.68-1088.88,583.5c-299.86,380.24-465,881.16-465,1410.5s165.14,1030.26,465,1410.5&#xA;&#x9;&#x9;&#x9;&#x9;C1203.55,3781.32,1600.44,3994,2000,3994c399.57,0,796.46-212.68,1088.92-583.5c299.88-380.24,465.03-881.17,465.03-1410.5&#xA;&#x9;&#x9;&#x9;&#x9;S3388.8,969.75,3088.92,589.5C2796.46,218.68,2399.57,6,2000,6z"></path>
&#x9;&#x9;</g>
&#x9;&#x9;<g>
&#x9;&#x9;&#x9;<path d="M2000,4006c-70.62,0-142.42-13.8-213.41-41.03c-69.22-26.55-138.17-66.04-204.94-117.38&#xA;&#x9;&#x9;&#x9;&#x9;c-65.78-50.58-129.79-112.93-190.27-185.31c-60.29-72.16-117.34-154.61-169.55-245.07c-52.67-91.25-100.68-191.1-142.7-296.78&#xA;&#x9;&#x9;&#x9;&#x9;c-42.85-107.76-79.74-222.32-109.66-340.47c-63.19-249.59-95.24-512.01-95.24-779.96c0-267.96,32.04-530.37,95.24-779.96&#xA;&#x9;&#x9;&#x9;&#x9;c29.92-118.16,66.81-232.71,109.66-340.47c42.01-105.67,90.02-205.52,142.7-296.78c52.21-90.45,109.26-172.91,169.55-245.07&#xA;&#x9;&#x9;&#x9;&#x9;c60.48-72.38,124.5-134.73,190.27-185.31c66.77-51.34,135.72-90.83,204.94-117.38C1857.58,7.81,1929.38-6,2000-6&#xA;&#x9;&#x9;&#x9;&#x9;c70.62,0,142.43,13.8,213.42,41.03c69.22,26.55,138.18,66.04,204.95,117.38c65.78,50.58,129.81,112.93,190.29,185.31&#xA;&#x9;&#x9;&#x9;&#x9;c60.3,72.16,117.35,154.61,169.57,245.07c52.68,91.26,100.7,191.11,142.72,296.78c42.85,107.77,79.76,222.32,109.68,340.47&#xA;&#x9;&#x9;&#x9;&#x9;c63.21,249.59,95.26,512.01,95.26,779.96s-32.05,530.37-95.26,779.96c-29.92,118.16-66.82,232.71-109.68,340.47&#xA;&#x9;&#x9;&#x9;&#x9;c-42.02,105.67-90.04,205.52-142.72,296.78c-52.22,90.45-109.27,172.91-169.57,245.07c-60.49,72.38-124.51,134.73-190.29,185.31&#xA;&#x9;&#x9;&#x9;&#x9;c-66.77,51.34-135.73,90.83-204.95,117.38C2142.43,3992.2,2070.62,4006,2000,4006z M2000,6&#xA;&#x9;&#x9;&#x9;&#x9;c-274.15,0-553.99,212.42-767.77,582.79C1009.12,975.32,886.24,1476.5,886.24,2000s122.87,1024.68,345.98,1411.21&#xA;&#x9;&#x9;&#x9;&#x9;C1446.01,3781.58,1725.85,3994,2000,3994c274.16,0,554.03-212.42,767.84-582.79C2991,3024.67,3113.9,2523.49,3113.9,2000&#xA;&#x9;&#x9;&#x9;&#x9;S2991,975.33,2767.84,588.79C2554.03,218.42,2274.16,6,2000,6z"></path>
&#x9;&#x9;</g>
&#x9;&#x9;<g>
&#x9;&#x9;&#x9;<path d="M2000,4006c-151.69,0-322.9-220.46-457.98-589.72c-33.63-91.94-64.43-191.72-91.54-296.55&#xA;&#x9;&#x9;&#x9;&#x9;c-28.07-108.54-52.3-223.01-72.03-340.23c-42.52-252.63-64.08-514.88-64.08-779.49s21.56-526.86,64.08-779.49&#xA;&#x9;&#x9;&#x9;&#x9;c19.73-117.23,43.97-231.7,72.03-340.24c27.11-104.83,57.91-204.61,91.54-296.55C1677.1,214.46,1848.31-6,2000-6&#xA;&#x9;&#x9;&#x9;&#x9;c151.7,0,322.95,220.46,458.09,589.72c33.65,91.95,64.46,191.72,91.58,296.55c28.08,108.54,52.33,223.01,72.07,340.24&#xA;&#x9;&#x9;&#x9;&#x9;c42.54,252.63,64.11,514.89,64.11,779.49c0,264.6-21.57,526.86-64.11,779.49c-19.74,117.23-43.99,231.7-72.07,340.24&#xA;&#x9;&#x9;&#x9;&#x9;c-27.12,104.83-57.93,204.61-91.58,296.55C2322.95,3785.54,2151.7,4006,2000,4006z M2000,6c-71.33,0-150.19,53.54-228.03,154.83&#xA;&#x9;&#x9;&#x9;&#x9;c-77.99,101.48-153.61,249.14-218.68,427.02c-146.33,400.02-226.92,901.53-226.92,1412.15s80.59,1012.13,226.92,1412.15&#xA;&#x9;&#x9;&#x9;&#x9;c65.07,177.88,140.69,325.55,218.68,427.02C1849.81,3940.46,1928.67,3994,2000,3994c71.34,0,150.2-53.54,228.06-154.83&#xA;&#x9;&#x9;&#x9;&#x9;c78.01-101.48,153.65-249.14,218.75-427.02c146.4-400.05,227.03-901.56,227.03-1412.15s-80.63-1012.1-227.03-1412.15&#xA;&#x9;&#x9;&#x9;&#x9;c-65.1-177.88-140.74-325.54-218.75-427.02C2150.2,59.54,2071.34,6,2000,6z"></path>
&#x9;&#x9;</g>
&#x9;&#x9;<g>
&#x9;&#x9;&#x9;<path d="M2000,4006c-5.53,0-11.61-3.42-25.16-44.76c-9.13-27.85-20.04-68.32-31.57-117.02&#xA;&#x9;&#x9;&#x9;&#x9;c-27.22-115.03-55.96-267.42-80.93-429.08c-31.51-204.06-56.71-418.09-74.9-636.14c-21.87-262.14-32.96-524.23-32.96-778.99&#xA;&#x9;&#x9;&#x9;&#x9;c0-254.76,11.09-516.85,32.96-778.99c18.19-218.05,43.39-432.08,74.9-636.14c24.96-161.66,53.71-314.05,80.93-429.08&#xA;&#x9;&#x9;&#x9;&#x9;c11.53-48.71,22.44-89.17,31.57-117.02C1988.39-2.58,1994.47-6,2000-6c5.53,0,11.61,3.42,25.17,44.76&#xA;&#x9;&#x9;&#x9;&#x9;c9.14,27.85,20.06,68.32,31.6,117.02c27.25,115.05,56.03,267.43,81.02,429.08c31.55,204.07,56.79,418.1,75,636.14&#xA;&#x9;&#x9;&#x9;&#x9;c21.9,262.14,33,524.23,33,778.99c0,254.75-11.1,516.84-33,778.99c-18.21,218.04-43.45,432.07-75,636.14&#xA;&#x9;&#x9;&#x9;&#x9;c-24.99,161.65-53.77,314.04-81.02,429.08c-11.54,48.71-22.47,89.17-31.6,117.02C2011.61,4002.58,2005.53,4006,2000,4006z&#xA;&#x9;&#x9;&#x9;&#x9; M2001.97,3994.54L2001.97,3994.54L2001.97,3994.54z M2000,7.99c-6.7,10.9-23.01,54.98-48.74,166.35&#xA;&#x9;&#x9;&#x9;&#x9;c-27.11,117.34-55.49,270.37-79.9,430.91c-47.85,314.67-104.88,812.08-104.88,1394.76s57.03,1080.09,104.88,1394.76&#xA;&#x9;&#x9;&#x9;&#x9;c24.41,160.54,52.78,313.57,79.9,430.91c25.73,111.37,42.04,155.45,48.74,166.35c6.71-10.9,23.02-54.97,48.78-166.34&#xA;&#x9;&#x9;&#x9;&#x9;c27.14-117.35,55.55-270.38,79.99-430.9c47.91-314.68,105.02-812.11,105.02-1394.77s-57.11-1080.08-105.02-1394.77&#xA;&#x9;&#x9;&#x9;&#x9;c-24.44-160.52-52.85-313.55-79.99-430.9C2023.02,62.96,2006.71,18.88,2000,7.99z"></path>
&#x9;&#x9;</g>
&#x9;</g>
</g>
</svg>