<?xml version="1.0"?>

<svg fill="#FFFFFF" version="1.1" id="Layer_1" xmlns="http://www.w3.org/2000/svg" xmlns:xlink="http://www.w3.org/1999/xlink" x="0px" y="0px" viewBox="0 0 4000 4000" style="enable-background:new 0 0 4000 4000;" xml:space="preserve">


<g>
&#x9;<g>
&#x9;&#x9;<g>
&#x9;&#x9;&#x9;<path d="M910.88,4004c-303.92,0-608.45-0.03-910.85-0.13l-4,0l0-4c0.12-1037.72,0.07-2092.8,0.03-3113.15&#xA;&#x9;&#x9;&#x9;&#x9;C-3.94,590.23-3.96,293.74-3.96-2.75l0-4h4c439.98,0,879.96-0.04,1319.95-0.07c440.81-0.03,889.2-0.07,1339.4-0.07&#xA;&#x9;&#x9;&#x9;&#x9;c447.79,0,897.36,0.03,1343.28,0.14l4,0v4c0,423.53,0.03,847.06,0.06,1270.6c0.06,895.43,0.12,1821.35-0.06,2732.03l0,4l-4,0&#xA;&#x9;&#x9;&#x9;&#x9;c-644.84-0.16-1300.47-0.07-1934.51,0.02C1687.65,4003.94,1299.8,4004,910.88,4004z M4.04,3995.87&#xA;&#x9;&#x9;&#x9;&#x9;c301.03,0.09,604.33,0.13,906.85,0.13c388.96,0,776.72-0.05,1157.26-0.11c380.1-0.05,768.07-0.11,1156.71-0.11&#xA;&#x9;&#x9;&#x9;&#x9;c258.3,0,516.86,0.02,773.81,0.09c0.18-909.39,0.12-1833.91,0.06-2728.03c-0.03-422.19-0.06-844.41-0.06-1266.6&#xA;&#x9;&#x9;&#x9;&#x9;c-444.57-0.1-892.86-0.14-1339.28-0.14c-450.25,0-898.54,0.03-1339.4,0.07C881.34,1.21,442.67,1.25,4.04,1.25&#xA;&#x9;&#x9;&#x9;&#x9;C4.04,296.4,4.06,591.57,4.07,886.72C4.11,1905.76,4.15,2959.44,4.04,3995.87z"></path>
&#x9;&#x9;</g>
&#x9;&#x9;<g>
&#x9;&#x9;&#x9;<path d="M2793.26,3845.58c-257.77,0-517.62-12.72-769.87-25.07c-22.54-1.1-45.09-2.21-67.63-3.3&#xA;&#x9;&#x9;&#x9;&#x9;c-98.05-4.76-197.74-11.7-294.15-18.41c-199.52-13.88-405.82-28.24-608.95-24.13c-141.47,2.86-285.69,11.25-425.17,19.38&#xA;&#x9;&#x9;&#x9;&#x9;c-205.88,11.99-418.76,24.39-627.54,19.26c-2.21-0.05-3.96-1.89-3.9-4.1c0.05-2.21,1.88-3.91,4.1-3.9&#xA;&#x9;&#x9;&#x9;&#x9;c208.45,5.12,421.16-7.27,626.88-19.25c139.55-8.13,283.85-16.53,425.47-19.39c203.49-4.11,409.98,10.26,609.67,24.15&#xA;&#x9;&#x9;&#x9;&#x9;c96.37,6.71,196.02,13.64,293.98,18.4c22.55,1.09,45.09,2.2,67.64,3.3c284.57,13.93,578.84,28.34,868.72,24.4&#xA;&#x9;&#x9;&#x9;&#x9;c151.93-2.06,306.66-9.19,456.29-16.08c214.47-9.88,436.24-20.09,653.96-15.6c2.21,0.04,3.96,1.87,3.92,4.08&#xA;&#x9;&#x9;&#x9;&#x9;c-0.04,2.18-1.83,3.92-4,3.92c-0.03,0-0.06,0-0.08,0c-217.46-4.48-439.09,5.73-653.43,15.6c-149.7,6.89-304.5,14.02-456.55,16.09&#xA;&#x9;&#x9;&#x9;&#x9;C2859.55,3845.37,2826.42,3845.58,2793.26,3845.58z"></path>
&#x9;&#x9;</g>
&#x9;&#x9;<g>
&#x9;&#x9;&#x9;<path d="M2852.76,3724.89c-6.67,0-13.33-0.03-20-0.09c-346.91-3.23-692.37-46.89-984.54-89.17&#xA;&#x9;&#x9;&#x9;&#x9;c-104.63-15.14-209.74-37.89-311.39-59.89c-168.26-36.42-342.25-74.07-518.06-77.96c-178.48-3.96-354.6,29.7-524.91,62.24&#xA;&#x9;&#x9;&#x9;&#x9;c-160.33,30.63-326.12,62.31-493.81,62.66c0,0-0.01,0-0.01,0c-2.21,0-4-1.79-4-3.99c0-2.21,1.78-4,3.99-4.01&#xA;&#x9;&#x9;&#x9;&#x9;c166.93-0.35,332.35-31.95,492.32-62.51c170.73-32.62,347.27-66.35,526.59-62.38c176.58,3.9,350.95,41.64,519.58,78.13&#xA;&#x9;&#x9;&#x9;&#x9;c101.51,21.97,206.48,44.69,310.84,59.79c291.91,42.24,637.03,85.86,983.47,89.08c200.75,1.85,402.1-25.02,596.81-51.02&#xA;&#x9;&#x9;&#x9;&#x9;c187-24.97,380.37-50.8,573.02-51.13c0,0,0,0,0.01,0c2.21,0,4,1.79,4,3.99c0,2.21-1.78,4-3.99,4.01&#xA;&#x9;&#x9;&#x9;&#x9;c-192.12,0.33-385.22,26.12-571.97,51.06C3242.18,3698.89,3047.42,3724.89,2852.76,3724.89z"></path>
&#x9;&#x9;</g>
&#x9;&#x9;<g>
&#x9;&#x9;&#x9;<path d="M2817.45,3620.82c-19.77,0-39.21-0.42-58.38-1.26c-169.18-7.39-345.71-25.66-524.67-54.3&#xA;&#x9;&#x9;&#x9;&#x9;c-169.75-27.17-343.43-63.92-516.2-109.25c-104.15-27.32-204.34-71.8-301.23-114.8c-139.41-61.88-283.57-125.88-440.3-138.57&#xA;&#x9;&#x9;&#x9;&#x9;c-186.23-15.08-361.14,50.17-530.29,113.28c-142.92,53.32-290.7,108.45-446.15,116.14c-2.23,0.08-4.08-1.59-4.19-3.8&#xA;&#x9;&#x9;&#x9;&#x9;c-0.11-2.21,1.59-4.08,3.8-4.19c154.21-7.63,301.4-62.54,443.74-115.64c84.95-31.69,172.8-64.47,261.03-86.74&#xA;&#x9;&#x9;&#x9;&#x9;c99.1-25.02,188.3-33.86,272.7-27.02c158.09,12.8,302.88,77.08,442.9,139.23c96.6,42.88,196.48,87.22,300.01,114.38&#xA;&#x9;&#x9;&#x9;&#x9;c357.78,93.86,707.41,148.8,1039.19,163.3c230.34,10.07,457.43-42.54,677.05-93.42c183.92-42.61,374.11-86.67,566.02-94.06&#xA;&#x9;&#x9;&#x9;&#x9;c2.18-0.07,4.07,1.64,4.15,3.84c0.08,2.21-1.64,4.07-3.84,4.15c-191.16,7.36-380.97,51.34-564.53,93.86&#xA;&#x9;&#x9;&#x9;&#x9;c-110.03,25.49-223.81,51.85-336.65,70.03C2998.35,3612.62,2904.78,3620.82,2817.45,3620.82z"></path>
&#x9;&#x9;</g>
&#x9;&#x9;<g>
&#x9;&#x9;&#x9;<path d="M2766.68,3507.69c-24.61,0-48.77-0.82-72.57-2.44c-183.42-12.54-369.31-38.34-552.5-76.68&#xA;&#x9;&#x9;&#x9;&#x9;c-187.92-39.33-368.41-90.92-536.45-153.35c-101.82-37.83-192.11-102.8-279.42-165.63c-116.98-84.17-237.94-171.22-385.96-190.98&#xA;&#x9;&#x9;&#x9;&#x9;c-187.47-25.03-354.75,68.2-516.52,158.37c-133.61,74.47-271.77,151.48-422.9,164.43c-2.19,0.19-4.14-1.44-4.33-3.64&#xA;&#x9;&#x9;&#x9;&#x9;c-0.19-2.2,1.44-4.14,3.64-4.33c149.42-12.8,286.81-89.39,419.68-163.45c81.44-45.39,165.64-92.33,251.39-123.76&#xA;&#x9;&#x9;&#x9;&#x9;c46.24-16.95,89.27-28.19,131.54-34.35c47.48-6.92,92.8-7.32,138.55-1.21c67.36,9,134.83,32.38,206.29,71.48&#xA;&#x9;&#x9;&#x9;&#x9;c63.58,34.79,124.43,78.59,183.29,120.94c86.88,62.52,176.73,127.17,277.54,164.62c330.22,122.68,716.15,204.2,1086.71,229.54&#xA;&#x9;&#x9;&#x9;&#x9;c248.36,16.98,490.84-58.47,725.33-131.44c188.85-58.77,384.14-119.54,582.39-132.32c2.18-0.11,4.11,1.53,4.25,3.73&#xA;&#x9;&#x9;&#x9;&#x9;c0.14,2.21-1.53,4.11-3.73,4.25c-197.3,12.72-392.12,73.34-580.52,131.97c-117.55,36.58-239.11,74.41-359.97,100.18&#xA;&#x9;&#x9;&#x9;&#x9;C2955.51,3496.44,2858.05,3507.69,2766.68,3507.69z"></path>
&#x9;&#x9;</g>
&#x9;&#x9;<g>
&#x9;&#x9;&#x9;<path d="M2725.2,3360.01c-21.88,0-43.44-0.7-64.75-2.1c-186.25-12.21-377.05-41.5-567.11-87.04&#xA;&#x9;&#x9;&#x9;&#x9;c-192.3-46.08-375.59-106.86-544.76-180.64c-99.89-43.57-182.81-120.37-263-194.65c-106.2-98.38-216.02-200.1-363.97-220.39&#xA;&#x9;&#x9;&#x9;&#x9;c-191.29-26.22-340.6,75.64-498.68,183.48c-129.79,88.55-264.01,180.11-422.6,192.17c-2.22,0.16-4.12-1.48-4.29-3.68&#xA;&#x9;&#x9;&#x9;&#x9;c-0.17-2.2,1.48-4.12,3.69-4.29c156.46-11.9,289.78-102.85,418.7-190.8c76.19-51.98,154.98-105.73,237.21-142&#xA;&#x9;&#x9;&#x9;&#x9;c44.36-19.57,86.21-32.66,127.93-40.03c46.86-8.28,92.37-9.18,139.14-2.77c67.57,9.27,132.96,35.83,199.9,81.22&#xA;&#x9;&#x9;&#x9;&#x9;c59.53,40.36,114.89,91.64,168.42,141.23c79.7,73.83,162.11,150.17,260.76,193.19c338.12,147.47,732.04,242.3,1109.19,267.04&#xA;&#x9;&#x9;&#x9;&#x9;c253.41,16.61,495.97-69.47,730.55-152.74c196.92-69.89,400.54-142.17,610.9-154.31c2.18-0.12,4.1,1.56,4.22,3.76&#xA;&#x9;&#x9;&#x9;&#x9;c0.13,2.21-1.56,4.1-3.76,4.22c-209.22,12.08-412.29,84.16-608.68,153.86c-117.63,41.75-239.26,84.92-360.82,114.68&#xA;&#x9;&#x9;&#x9;&#x9;C2922.31,3346.61,2820.83,3360.01,2725.2,3360.01z"></path>
&#x9;&#x9;</g>
&#x9;&#x9;<g>
&#x9;&#x9;&#x9;<path d="M2733.32,3200.51c-21.2,0-42.14-0.75-62.9-2.25c-179.66-12.95-351.24-85.29-517.16-155.25&#xA;&#x9;&#x9;&#x9;&#x9;c-13.81-5.82-27.57-11.63-41.28-17.37c-114.88-48.13-246.9-100.38-352.99-142.36c-82.23-32.54-147.18-58.25-165.35-66.83&#xA;&#x9;&#x9;&#x9;&#x9;c-83.09-39.24-158.92-92.86-232.26-144.72c-136.14-96.26-264.72-187.18-437.59-196.14c-187.84-9.73-337.54,91.99-482.29,190.36&#xA;&#x9;&#x9;&#x9;&#x9;c-66.58,45.25-135.43,92.03-207.53,127.88c-81.13,40.34-157.57,62.06-233.69,66.43c-2.2,0.15-4.1-1.56-4.22-3.76&#xA;&#x9;&#x9;&#x9;&#x9;c-0.13-2.21,1.56-4.1,3.76-4.22c167.39-9.59,304.55-102.8,437.19-192.94c72.88-49.52,148.23-100.73,227.55-137.27&#xA;&#x9;&#x9;&#x9;&#x9;c42.79-19.71,83.29-33.71,123.84-42.81c45.54-10.21,89.97-14.03,135.81-11.65c78.68,4.08,156.06,25.92,236.55,66.78&#xA;&#x9;&#x9;&#x9;&#x9;c71.71,36.4,139.59,84.4,205.24,130.82c73.06,51.66,148.6,105.07,231.06,144.01c17.95,8.48,82.79,34.14,164.88,66.62&#xA;&#x9;&#x9;&#x9;&#x9;c106.12,42,238.19,94.26,353.14,142.42c13.71,5.75,27.48,11.55,41.3,17.38c165.33,69.71,336.28,141.79,514.63,154.65&#xA;&#x9;&#x9;&#x9;&#x9;c249.3,17.97,480.25-76.31,703.6-167.5c100.03-40.84,203.46-83.07,307.38-114.79c116.72-35.62,221.58-53.87,320.59-55.77&#xA;&#x9;&#x9;&#x9;&#x9;c0.03,0,0.05,0,0.08,0c2.17,0,3.96,1.74,4,3.92c0.04,2.21-1.71,4.03-3.92,4.08c-219.13,4.22-425.51,88.48-625.1,169.97&#xA;&#x9;&#x9;&#x9;&#x9;c-112.01,45.73-227.84,93.02-344.67,125.67C2925.89,3185.77,2827.23,3200.51,2733.32,3200.51z"></path>
&#x9;&#x9;</g>
&#x9;&#x9;<g>
&#x9;&#x9;&#x9;<path d="M2815.14,3103.87c-33.94,0-66.51-3.57-97.97-10.69c-75.73-17.13-153.25-53.9-237.01-112.42&#xA;&#x9;&#x9;&#x9;&#x9;c-73.53-51.37-141.63-111.89-207.49-170.42c-21.58-19.18-41.97-37.3-62.45-55.02c-8.53-7.38-17.05-14.78-25.59-22.19&#xA;&#x9;&#x9;&#x9;&#x9;c-135.68-117.79-275.98-239.59-451.36-294.61c-53.47-16.77-107.05-35.25-158.87-53.11c-212.41-73.22-413.04-142.39-640.17-117.55&#xA;&#x9;&#x9;&#x9;&#x9;c-183.06,20.02-323.32,101.96-447.62,187.53c-73.39,50.52-149.27,102.76-228.55,142.19c-89.31,44.42-171.23,67.32-257.81,72.07&#xA;&#x9;&#x9;&#x9;&#x9;c-2.2,0.1-4.09-1.57-4.21-3.77c-0.12-2.21,1.57-4.09,3.77-4.21c188.05-10.33,330.96-108.71,482.26-212.86&#xA;&#x9;&#x9;&#x9;&#x9;c81.96-56.42,147.86-94.64,213.67-123.92c78.19-34.79,155.92-56.04,237.62-64.97c102.8-11.24,210.6-3.84,329.54,22.62&#xA;&#x9;&#x9;&#x9;&#x9;c106.12,23.61,211.86,60.06,314.11,95.31c51.77,17.85,105.3,36.3,158.66,53.04c176.97,55.52,317.91,177.87,454.21,296.2&#xA;&#x9;&#x9;&#x9;&#x9;c8.53,7.41,17.05,14.8,25.58,22.18c20.52,17.76,40.93,35.89,62.53,55.09c128.24,113.97,273.6,243.15,440.95,281.01&#xA;&#x9;&#x9;&#x9;&#x9;c191.47,43.32,385.5-54.59,556.69-140.98c6.76-3.41,13.48-6.8,20.16-10.16c41.57-20.92,84.2-43.66,125.43-65.65&#xA;&#x9;&#x9;&#x9;&#x9;c183.26-97.75,372.76-198.83,581.29-206.96c2.19-0.09,4.07,1.63,4.15,3.84c0.09,2.21-1.63,4.07-3.84,4.15&#xA;&#x9;&#x9;&#x9;&#x9;c-206.69,8.06-395.37,108.7-577.83,206.02c-41.27,22.01-83.95,44.77-125.6,65.74c-6.67,3.36-13.38,6.75-20.15,10.16&#xA;&#x9;&#x9;&#x9;&#x9;c-82.68,41.72-176.39,89.01-271.3,119.23C2938.51,3092.87,2874.71,3103.87,2815.14,3103.87z"></path>
&#x9;&#x9;</g>
&#x9;&#x9;<g>
&#x9;&#x9;&#x9;<path d="M2890.2,3038.83c-38.96,0-75.32-7.89-108.37-23.54c-162.88-77.14-275.45-263.11-374.77-427.19&#xA;&#x9;&#x9;&#x9;&#x9;c-23.43-38.71-45.56-75.27-67.52-109.04c-13.65-20.98-27.7-43.45-42.57-67.25c-95.52-152.79-214.4-342.95-382.26-387.93&#xA;&#x9;&#x9;&#x9;&#x9;c-143.96-38.58-314.55-39.63-463.14-37.59c-165.54,2.28-334.77,25.42-503,68.78c-161.37,41.6-298.06,105.58-457.06,213.95&#xA;&#x9;&#x9;&#x9;&#x9;c-76.06,51.84-150.99,101.55-231.41,139.97c-88.72,42.38-173.71,65.3-259.84,70.05c-2.22,0.11-4.09-1.57-4.21-3.77&#xA;&#x9;&#x9;&#x9;&#x9;c-0.12-2.21,1.57-4.09,3.77-4.21c182.51-10.08,322.78-96.6,487.18-208.65c159.81-108.92,297.25-173.24,459.57-215.08&#xA;&#x9;&#x9;&#x9;&#x9;c168.85-43.52,338.72-66.75,504.89-69.04c149.13-2.05,320.38-0.98,465.32,37.86c76.06,20.38,148.74,71.45,222.19,156.13&#xA;&#x9;&#x9;&#x9;&#x9;c63.31,72.99,117.22,159.21,164.78,235.29c14.85,23.76,28.89,46.21,42.49,67.12c22.03,33.88,44.2,70.49,67.66,109.25&#xA;&#x9;&#x9;&#x9;&#x9;c98.74,163.12,210.65,348,371.35,424.1c72.62,34.39,158.28,30.03,261.87-13.34c89.04-37.28,176.35-97.49,246.5-145.87&#xA;&#x9;&#x9;&#x9;&#x9;c13.57-9.36,26.39-18.2,38.71-26.53c38.99-26.37,77.36-54.01,117.98-83.27c83.68-60.28,170.21-122.62,261.27-172.05&#xA;&#x9;&#x9;&#x9;&#x9;c103.04-55.94,198.14-87.31,290.71-95.91c2.19-0.21,4.15,1.41,4.35,3.61c0.2,2.2-1.41,4.15-3.61,4.35&#xA;&#x9;&#x9;&#x9;&#x9;c-204.49,19-379.14,144.81-548.05,266.48c-40.67,29.3-79.08,56.97-118.17,83.41c-12.29,8.31-25.1,17.14-38.65,26.49&#xA;&#x9;&#x9;&#x9;&#x9;c-70.46,48.59-158.15,109.06-247.95,146.66c-49.45,20.7-93.96,32.4-136.08,35.77C2906.05,3038.51,2898.07,3038.83,2890.2,3038.83&#xA;&#x9;&#x9;&#x9;&#x9;z"></path>
&#x9;&#x9;</g>
&#x9;&#x9;<g>
&#x9;&#x9;&#x9;<path d="M2950.26,2968.77c-37.2,0-73.14-10.15-106.46-34.22c-91.35-65.98-145.89-180.68-194.01-281.88&#xA;&#x9;&#x9;&#x9;&#x9;c-2.29-4.82-4.57-9.6-6.82-14.34c-50.28-105.43-94.62-215.6-137.49-322.15c-13.83-34.37-28.13-69.91-42.42-104.74&#xA;&#x9;&#x9;&#x9;&#x9;c-2.99-7.3-5.98-14.61-8.98-21.92c-50.42-123.13-102.55-250.46-170.71-366.42c-51.51-87.63-109.11-174.87-196.43-195.06&#xA;&#x9;&#x9;&#x9;&#x9;c-59.35-13.72-133.29-5.73-198.52,1.32c-15.18,1.64-29.53,3.19-43.43,4.45c-91.84,8.35-189.15,22.55-289.21,42.22&#xA;&#x9;&#x9;&#x9;&#x9;c-189.82,37.31-384.07,92.22-593.86,167.87c-165.43,59.65-309.03,133.36-465.62,238.98c-72.81,49.11-151.57,99.77-234.22,137.65&#xA;&#x9;&#x9;&#x9;&#x9;c-89.26,40.91-174.9,63.12-261.81,67.92c-2.19,0.11-4.09-1.57-4.21-3.77c-0.12-2.21,1.57-4.09,3.77-4.21&#xA;&#x9;&#x9;&#x9;&#x9;c190.35-10.51,341.34-102.59,492-204.21c157.16-106.01,301.3-179.99,467.38-239.87c210.18-75.79,404.81-130.81,595.04-168.2&#xA;&#x9;&#x9;&#x9;&#x9;c100.33-19.72,197.91-33.96,290.03-42.34c13.83-1.26,28.14-2.8,43.29-4.44c65.86-7.12,140.52-15.18,201.19-1.16&#xA;&#x9;&#x9;&#x9;&#x9;c42.28,9.77,81.35,35.57,119.43,78.87c32.25,36.67,58.24,79.35,82.09,119.93c68.46,116.46,120.7,244.05,171.22,367.44&#xA;&#x9;&#x9;&#x9;&#x9;c2.99,7.31,5.98,14.62,8.98,21.91c14.29,34.86,28.6,70.41,42.44,104.79c42.83,106.43,87.12,216.49,137.29,321.69&#xA;&#x9;&#x9;&#x9;&#x9;c2.26,4.74,4.54,9.52,6.83,14.35c47.71,100.33,101.78,214.05,191.47,278.83c149.83,108.22,359.19-78.25,484.28-189.67&#xA;&#x9;&#x9;&#x9;&#x9;c12.43-11.08,24.18-21.54,34.86-30.8c36.29-31.5,72.2-64.99,110.21-100.45c76.67-71.51,155.94-145.45,242.01-205.5&#xA;&#x9;&#x9;&#x9;&#x9;c97.73-68.18,190.06-107.79,282.25-121.1c2.19-0.3,4.21,1.2,4.53,3.39s-1.2,4.21-3.39,4.53&#xA;&#x9;&#x9;&#x9;&#x9;c-203.5,29.38-364.38,179.42-519.95,324.53c-38.07,35.51-74.03,69.05-110.43,100.64c-10.64,9.24-22.37,19.68-34.78,30.74&#xA;&#x9;&#x9;&#x9;&#x9;C3238.47,2833.1,3086.14,2968.75,2950.26,2968.77z"></path>
&#x9;&#x9;</g>
&#x9;&#x9;<g>
&#x9;&#x9;&#x9;<path d="M2986.3,2859.07c-38.57,0-73.48-12.73-104.05-37.98c-39.56-32.67-73.83-79.14-104.77-142.05&#xA;&#x9;&#x9;&#x9;&#x9;c-26.9-54.7-47.87-114.89-66.38-168.01c-4.59-13.18-8.93-25.63-13.31-37.9c-44.36-124.22-81.31-253.31-117.05-378.14&#xA;&#x9;&#x9;&#x9;&#x9;c-12.05-42.08-24.5-85.6-37.05-128.24c-2.33-7.93-4.66-15.86-7-23.81c-42.24-143.81-85.91-292.52-150.13-429.35&#xA;&#x9;&#x9;&#x9;&#x9;c-35.53-75.71-89.23-190.12-187.81-207.24c-64.02-11.11-142.82,4.14-212.35,17.61c-13.99,2.71-27.21,5.27-40,7.56&#xA;&#x9;&#x9;&#x9;&#x9;c-97.39,17.43-202.16,42.39-320.28,76.32c-201.63,57.92-410.26,131.99-656.57,233.11c-149.66,61.44-290.04,138.52-469.4,257.75&#xA;&#x9;&#x9;&#x9;&#x9;c-67.45,44.84-148.32,95.87-236.66,134.39c-89.55,39.05-175.66,60.23-263.25,64.76c-2.22,0.12-4.09-1.58-4.2-3.79&#xA;&#x9;&#x9;&#x9;&#x9;c-0.11-2.21,1.58-4.09,3.79-4.2c178.45-9.22,327.3-85.75,495.9-197.82c179.83-119.53,320.62-196.84,470.79-258.48&#xA;&#x9;&#x9;&#x9;&#x9;c246.59-101.23,455.48-175.39,657.4-233.4c118.38-34.01,223.41-59.03,321.07-76.51c12.74-2.28,25.93-4.83,39.89-7.54&#xA;&#x9;&#x9;&#x9;&#x9;c70.2-13.59,149.76-29,215.23-17.63c102.68,17.83,157.45,134.51,193.68,211.72c64.48,137.38,108.24,286.39,150.56,430.49&#xA;&#x9;&#x9;&#x9;&#x9;c2.33,7.94,4.66,15.88,7,23.8c12.55,42.67,25.02,86.2,37.07,128.3c35.7,124.71,72.62,253.68,116.89,377.65&#xA;&#x9;&#x9;&#x9;&#x9;c4.39,12.3,8.73,24.76,13.33,37.96c38.33,110.03,81.78,234.74,168.69,306.52c64.41,53.2,148.77,47.18,250.72-17.89&#xA;&#x9;&#x9;&#x9;&#x9;c86.78-55.39,170.56-143.19,225.99-201.28c9.7-10.17,18.86-19.77,27.09-28.21c33.76-34.64,67.4-72.16,103.02-111.88&#xA;&#x9;&#x9;&#x9;&#x9;c71.74-80,145.92-162.73,228.97-230.35c94.65-77.07,185.89-121.35,278.95-135.38c2.18-0.33,4.22,1.17,4.55,3.36&#xA;&#x9;&#x9;&#x9;&#x9;s-1.17,4.22-3.36,4.55c-205.24,30.94-363.52,207.44-503.16,363.16c-35.67,39.78-69.37,77.36-103.25,112.12&#xA;&#x9;&#x9;&#x9;&#x9;c-8.19,8.41-17.34,17.99-27.03,28.14c-55.7,58.38-139.88,146.59-227.47,202.5c-48.3,30.83-93.2,48.96-133.47,53.89&#xA;&#x9;&#x9;&#x9;&#x9;C3001.23,2858.61,2993.7,2859.07,2986.3,2859.07z"></path>
&#x9;&#x9;</g>
&#x9;&#x9;<g>
&#x9;&#x9;&#x9;<path d="M2991.06,2668.68c-38.33,0-73.13-12.47-103.73-37.22c-39.96-32.33-74.25-79.07-104.84-142.9&#xA;&#x9;&#x9;&#x9;&#x9;c-26.54-55.4-46.78-116.33-64.64-170.08c-4.54-13.67-8.83-26.59-13.16-39.24c-42.98-125.74-78.31-256.31-112.48-382.58&#xA;&#x9;&#x9;&#x9;&#x9;c-11.81-43.66-24.03-88.8-36.37-133.04c-2.46-8.81-4.91-17.63-7.37-26.46c-40.29-144.75-81.95-294.42-145.54-431.73&#xA;&#x9;&#x9;&#x9;&#x9;c-43.41-93.75-93.7-186.48-188.07-200.71c-157.92-23.81-355.62,39.51-514.49,90.38c-22.45,7.19-43.66,13.98-64.25,20.38&#xA;&#x9;&#x9;&#x9;&#x9;c-231.36,71.87-457.07,160.59-666.53,245.77c-121.64,49.47-237.49,120.85-349.53,189.89c-95.3,58.72-193.84,119.44-295.47,166.38&#xA;&#x9;&#x9;&#x9;&#x9;c-114.16,52.72-220.23,82.06-324.28,89.71c-2.21,0.17-4.12-1.49-4.28-3.7c-0.16-2.2,1.49-4.12,3.7-4.28&#xA;&#x9;&#x9;&#x9;&#x9;c229.87-16.9,426.24-137.9,616.15-254.92c112.31-69.21,228.45-140.77,350.71-190.49c209.62-85.24,435.52-174.04,667.17-245.99&#xA;&#x9;&#x9;&#x9;&#x9;c20.56-6.39,41.75-13.17,64.18-20.36c159.66-51.13,358.36-114.76,518.12-90.68c45.82,6.91,85.42,32.14,121.07,77.12&#xA;&#x9;&#x9;&#x9;&#x9;c30.5,38.49,52.82,84.4,73.07,128.13c63.86,137.9,105.61,287.89,145.98,432.95c2.46,8.83,4.91,17.65,7.37,26.45&#xA;&#x9;&#x9;&#x9;&#x9;c12.35,44.27,24.57,89.43,36.39,133.1c34.14,126.15,69.43,256.6,112.33,382.09c4.34,12.69,8.63,25.62,13.18,39.31&#xA;&#x9;&#x9;&#x9;&#x9;c35.27,106.17,79.17,238.3,166.92,309.29c65.37,52.88,150.54,46.1,253.14-20.17c87.18-56.31,170.53-144.53,225.68-202.91&#xA;&#x9;&#x9;&#x9;&#x9;c8.72-9.23,16.96-17.95,24.43-25.72c33.07-34.41,65.93-71.48,100.71-110.73c71.08-80.22,144.59-163.17,227.13-230.88&#xA;&#x9;&#x9;&#x9;&#x9;c94.04-77.13,185.17-121.45,278.61-135.5c2.19-0.33,4.22,1.18,4.55,3.36c0.33,2.18-1.18,4.22-3.36,4.55&#xA;&#x9;&#x9;&#x9;&#x9;c-206.03,30.96-362.71,207.77-500.94,363.77c-34.84,39.31-67.74,76.45-100.93,110.97c-7.44,7.74-15.67,16.45-24.38,25.67&#xA;&#x9;&#x9;&#x9;&#x9;c-55.42,58.66-139.17,147.31-227.16,204.14c-48.54,31.35-93.76,49.95-134.38,55.26&#xA;&#x9;&#x9;&#x9;&#x9;C3007.18,2668.14,2999.04,2668.68,2991.06,2668.68z"></path>
&#x9;&#x9;</g>
&#x9;&#x9;<g>
&#x9;&#x9;&#x9;<path d="M2996.3,2393.09c-38.74,0-73.78-11.73-104.39-35c-39.87-30.3-74.81-74.45-106.83-134.98&#xA;&#x9;&#x9;&#x9;&#x9;c-27.76-52.49-49.58-110.15-68.82-161.03c-3.08-8.15-6.11-16.17-9.11-24.02c-44.01-115.15-81.49-234.79-117.74-350.49&#xA;&#x9;&#x9;&#x9;&#x9;c-11.8-37.65-23.99-76.58-36.23-114.76l-6.46-20.19c-42.38-132.43-86.2-269.38-150.6-393.7&#xA;&#x9;&#x9;&#x9;&#x9;c-42.44-81.93-95.5-170.5-188.33-184.19c-160.92-23.74-360.58,44.76-521.01,99.81c-20.68,7.09-40.21,13.79-59.23,20.16&#xA;&#x9;&#x9;&#x9;&#x9;c-190.27,63.67-379.56,140.03-562.62,213.87c-30.54,12.32-62.11,25.06-93.18,37.53c-102.16,41.01-201.79,90.97-298.15,139.29&#xA;&#x9;&#x9;&#x9;&#x9;c-104.76,52.53-213.08,106.84-323.67,149.02c-124.03,47.3-238.39,74.18-349.62,82.18c-2.21,0.17-4.12-1.5-4.28-3.7&#xA;&#x9;&#x9;&#x9;&#x9;c-0.16-2.2,1.5-4.12,3.7-4.28C245.9,1690.91,461.5,1582.81,670,1478.26c96.5-48.39,196.29-98.43,298.76-139.56&#xA;&#x9;&#x9;&#x9;&#x9;c31.06-12.47,62.64-25.21,93.17-37.52c183.17-73.89,372.57-150.29,563.07-214.04c19-6.36,38.52-13.05,59.18-20.14&#xA;&#x9;&#x9;&#x9;&#x9;c161.25-55.33,361.93-124.18,524.77-100.15c44.06,6.5,82.82,29.36,118.5,69.88c30.63,34.78,54.51,77.53,75.76,118.55&#xA;&#x9;&#x9;&#x9;&#x9;c64.71,124.92,108.63,262.19,151.12,394.94l6.46,20.18c12.24,38.2,24.44,77.14,36.24,114.81&#xA;&#x9;&#x9;&#x9;&#x9;c36.21,115.59,73.66,235.11,117.58,350.03c3,7.86,6.04,15.88,9.12,24.04c38.07,100.65,85.45,225.92,173,292.46&#xA;&#x9;&#x9;&#x9;&#x9;c64.62,49.12,145.96,44.5,248.65-14.11c86.42-49.32,167.96-125.88,227.51-181.79c8.94-8.4,17.39-16.33,25.18-23.53&#xA;&#x9;&#x9;&#x9;&#x9;c33.01-30.51,65.46-62.62,99.82-96.62c72.55-71.79,147.58-146.03,229.95-206.12c93.48-68.19,183.18-107.72,274.23-120.84&#xA;&#x9;&#x9;&#x9;&#x9;c2.19-0.32,4.21,1.2,4.53,3.39c0.32,2.19-1.2,4.21-3.39,4.53c-200.75,28.92-352.72,179.3-499.69,324.72&#xA;&#x9;&#x9;&#x9;&#x9;c-34.41,34.05-66.91,66.21-100.02,96.8c-7.77,7.18-16.2,15.1-25.13,23.48c-59.83,56.18-141.78,133.11-229.02,182.9&#xA;&#x9;&#x9;&#x9;&#x9;c-48,27.4-92.56,43.36-132.44,47.45C3009.94,2392.74,3003.06,2393.09,2996.3,2393.09z"></path>
&#x9;&#x9;</g>
&#x9;&#x9;<g>
&#x9;&#x9;&#x9;<path d="M3003.22,2074.87c-36.71,0-72.3-8.59-105.39-28.92c-89.49-54.97-142.25-167.9-184.64-258.64l-4.82-10.3&#xA;&#x9;&#x9;&#x9;&#x9;c-44.36-94.74-82.72-193.95-119.82-289.88c-13.54-35.02-27.54-71.23-41.63-106.68c-7.9-19.88-16.43-42.99-25.46-67.46&#xA;&#x9;&#x9;&#x9;&#x9;c-61.38-166.25-154.14-417.5-328.53-434.86c-171.38-17.06-372.31,57.72-533.75,117.8c-14.33,5.33-27.86,10.37-41.37,15.35&#xA;&#x9;&#x9;&#x9;&#x9;c-139.88,51.53-279.57,110.4-414.67,167.33c-73.08,30.8-148.66,62.64-223.39,92.96c-143.73,58.31-311.08,124.54-478.25,172.53&#xA;&#x9;&#x9;&#x9;&#x9;c-177.03,50.81-341.03,77.62-501.38,81.95c-2.21,0.07-4.05-1.68-4.11-3.89c-0.06-2.21,1.68-4.05,3.89-4.11&#xA;&#x9;&#x9;&#x9;&#x9;c347.75-9.39,648.14-120.54,976.84-253.9c74.69-30.3,150.23-62.14,223.29-92.92c135.18-56.96,274.96-115.87,415.01-167.46&#xA;&#x9;&#x9;&#x9;&#x9;c13.5-4.97,27.03-10.01,41.35-15.34c81.16-30.21,173.15-64.44,265.15-88.5c105.97-27.71,195-37.45,272.18-29.76&#xA;&#x9;&#x9;&#x9;&#x9;c179.38,17.86,273.18,271.93,335.25,440.05c9.01,24.42,17.53,47.48,25.39,67.27c14.1,35.48,28.11,71.71,41.66,106.75&#xA;&#x9;&#x9;&#x9;&#x9;c37.05,95.81,75.36,194.88,119.6,289.38l4.82,10.31c41.94,89.77,94.13,201.5,181.58,255.21&#xA;&#x9;&#x9;&#x9;&#x9;c149.74,91.97,355.65-66.72,478.68-161.54c7.35-5.66,14.41-11.1,21.15-16.26c32.09-24.53,64.87-51.01,96.56-76.63&#xA;&#x9;&#x9;&#x9;&#x9;c151.15-122.14,307.45-248.45,503.89-266.62c2.19-0.2,4.15,1.41,4.35,3.61c0.2,2.2-1.41,4.15-3.61,4.35&#xA;&#x9;&#x9;&#x9;&#x9;c-194.03,17.96-349.37,143.48-499.6,264.88c-31.74,25.65-64.56,52.17-96.73,76.76c-6.74,5.15-13.79,10.58-21.13,16.24&#xA;&#x9;&#x9;&#x9;&#x9;C3287.62,1959.42,3137.83,2074.87,3003.22,2074.87z"></path>
&#x9;&#x9;</g>
&#x9;&#x9;<g>
&#x9;&#x9;&#x9;<path d="M3010.64,1751.66c-37.05,0-73.22-6.56-107.42-21.99c-66.67-30.07-127.32-88.34-185.43-178.14&#xA;&#x9;&#x9;&#x9;&#x9;c-50.35-77.81-91.83-168.46-128.43-248.43c-18.78-41.05-36.52-79.81-53.96-113.72c-7.66-14.91-15.57-30.81-23.94-47.65&#xA;&#x9;&#x9;&#x9;&#x9;c-72.76-146.37-172.41-346.83-342.88-353.96c-185.02-7.74-379.71,72.15-551.49,142.63l-9.44,3.87&#xA;&#x9;&#x9;&#x9;&#x9;c-107.11,43.93-214.29,92.66-317.94,139.78c-95.58,43.45-194.42,88.39-293.02,129.48C668.5,1340.3,337.92,1343.99-0.1,1335.48&#xA;&#x9;&#x9;&#x9;&#x9;c-2.21-0.06-3.95-1.89-3.9-4.1c0.06-2.21,1.92-3.97,4.1-3.9c61.73,1.55,123.26,2.7,184.52,2.7&#xA;&#x9;&#x9;&#x9;&#x9;c273.28,0,542.09-22.81,808.99-134.04c98.48-41.04,197.26-85.95,292.79-129.38c103.72-47.15,210.96-95.91,318.22-139.9l9.44-3.87&#xA;&#x9;&#x9;&#x9;&#x9;c82.81-33.98,176.66-72.49,270.75-100.57c107.87-32.19,200.81-46.15,284.12-42.66c77.77,3.25,147.65,44.93,213.64,127.42&#xA;&#x9;&#x9;&#x9;&#x9;c56.14,70.18,100.46,159.33,136.07,230.97c8.36,16.81,16.25,32.7,23.89,47.56c17.51,34.07,35.29,72.92,54.11,114.05&#xA;&#x9;&#x9;&#x9;&#x9;c72.67,158.79,163.1,356.42,309.88,422.61c155.89,70.3,356.43-49.61,489.13-128.96l10.18-6.08&#xA;&#x9;&#x9;&#x9;&#x9;c30.41-18.16,61.28-37.42,91.13-56.05c155.27-96.9,315.82-197.09,505.57-203.85c2.25-0.09,4.06,1.65,4.14,3.85&#xA;&#x9;&#x9;&#x9;&#x9;c0.08,2.21-1.65,4.06-3.85,4.14c-187.62,6.69-347.25,106.31-501.62,202.65c-29.89,18.65-60.79,37.94-91.27,56.14l-10.17,6.08&#xA;&#x9;&#x9;&#x9;&#x9;C3294.33,1663.31,3146.58,1751.66,3010.64,1751.66z"></path>
&#x9;&#x9;</g>
&#x9;&#x9;<g>
&#x9;&#x9;&#x9;<path d="M3016.83,1461.52c-37.97,0-75.17-5.25-110.73-17.58c-65.31-22.63-127.07-69.29-188.8-142.64&#xA;&#x9;&#x9;&#x9;&#x9;c-53.73-63.83-100.82-140.04-142.36-207.28c-20.17-32.64-39.21-63.47-58.01-91.48c-5.93-8.83-11.83-17.72-18.08-27.12&#xA;&#x9;&#x9;&#x9;&#x9;c-87.74-132.03-196.93-296.34-365.87-298.78c-189.11-2.76-380.99,85.41-535.19,156.22c-83.62,38.4-167.36,80.25-248.33,120.71&#xA;&#x9;&#x9;&#x9;&#x9;c-105.18,52.56-213.95,106.91-323.79,154.39c-61.14,26.43-123.71,45.76-191.26,59.1c-60.24,11.89-123.16,18.72-192.35,20.87&#xA;&#x9;&#x9;&#x9;&#x9;c-128.53,3.98-260.68-9.27-388.48-22.1c-82.91-8.32-168.64-16.93-253.74-20.96c-2.21-0.1-3.91-1.98-3.81-4.18&#xA;&#x9;&#x9;&#x9;&#x9;c0.1-2.21,1.97-3.9,4.19-3.81c85.31,4.04,171.15,12.65,254.16,20.99c265.31,26.63,515.9,51.78,768.12-57.25&#xA;&#x9;&#x9;&#x9;&#x9;c109.64-47.39,218.3-101.69,323.39-154.21c81.04-40.49,164.83-82.37,248.57-120.83c87.33-40.11,173.02-78.53,261.18-107.77&#xA;&#x9;&#x9;&#x9;&#x9;c103.38-34.3,194.13-50.4,277.47-49.18c77.09,1.11,148.59,34.77,218.58,102.88c60.25,58.64,109.97,133.46,153.84,199.46&#xA;&#x9;&#x9;&#x9;&#x9;c6.25,9.4,12.15,18.28,18.06,27.09c18.88,28.14,37.97,59.03,58.18,91.73c85.96,139.12,183.38,296.8,326.98,346.56&#xA;&#x9;&#x9;&#x9;&#x9;c159.22,55.18,354.43-34.94,496.96-100.74l3.2-1.48c28.22-13.03,56.79-26.67,84.42-39.85c79.73-38.06,162.18-77.41,246.04-106.77&#xA;&#x9;&#x9;&#x9;&#x9;c94.2-32.97,180.32-49.57,263.26-50.73c0.02,0,0.04,0,0.06,0c2.18,0,3.97,1.75,4,3.94c0.03,2.21-1.74,4.02-3.94,4.06&#xA;&#x9;&#x9;&#x9;&#x9;c-183.03,2.56-347.2,80.93-505.97,156.72c-27.65,13.2-56.24,26.85-84.51,39.9l-3.2,1.48&#xA;&#x9;&#x9;&#x9;&#x9;C3296.77,1394.73,3152.09,1461.51,3016.83,1461.52z"></path>
&#x9;&#x9;</g>
&#x9;&#x9;<g>
&#x9;&#x9;&#x9;<path d="M3020.68,1238.29c-42.44,0-80.9-6.29-116.02-18.88c-146.42-52.48-254.97-193.01-350.73-317&#xA;&#x9;&#x9;&#x9;&#x9;c-21.91-28.37-42.61-55.17-63.44-80.62c-5.6-6.84-11.28-13.82-17.05-20.92c-99.32-122.07-222.92-273.98-387.79-280.24&#xA;&#x9;&#x9;&#x9;&#x9;c-167.72-6.38-346.58,84.28-490.31,157.12l-5.46,2.77c-68.01,34.46-136.14,71.62-202.02,107.57&#xA;&#x9;&#x9;&#x9;&#x9;c-103.32,56.37-210.16,114.65-319.31,164.01c-57.33,25.93-116.35,44.33-180.44,56.27c-57.07,10.63-116.88,15.85-182.85,15.95&#xA;&#x9;&#x9;&#x9;&#x9;c-122.43,0.23-248.09-17.8-369.64-35.19c-110.2-15.77-224.15-32.07-335.67-34.88c-2.21-0.06-3.95-1.89-3.9-4.1&#xA;&#x9;&#x9;&#x9;&#x9;c0.06-2.21,1.91-3.95,4.1-3.9c111.98,2.82,226.17,19.16,336.6,34.96c242.01,34.62,492.26,70.43,728.5-36.4&#xA;&#x9;&#x9;&#x9;&#x9;c108.88-49.24,215.58-107.45,318.78-163.75c65.93-35.97,134.11-73.17,202.23-107.68l5.46-2.77&#xA;&#x9;&#x9;&#x9;&#x9;c72.41-36.69,154.48-78.29,238.33-109.26c96.54-35.66,180.25-51.6,255.91-48.72c75.01,2.85,148,35.07,223.15,98.5&#xA;&#x9;&#x9;&#x9;&#x9;c64.75,54.66,120.96,123.74,170.55,184.69c5.76,7.09,11.44,14.06,17.04,20.9c20.9,25.54,41.63,52.38,63.58,80.79&#xA;&#x9;&#x9;&#x9;&#x9;c95.1,123.12,202.88,262.67,347.1,314.36c148.35,53.17,329.19-19.36,474.5-77.64c9.55-3.83,18.92-7.59,28.1-11.24&#xA;&#x9;&#x9;&#x9;&#x9;c26.44-10.51,53.21-21.41,79.1-31.95c81.44-33.16,165.65-67.44,250.39-93.93c95.08-29.72,181.11-46.36,262.98-50.86&#xA;&#x9;&#x9;&#x9;&#x9;c2.21-0.11,4.09,1.57,4.21,3.77c0.12,2.21-1.57,4.09-3.77,4.21c-181.04,9.96-348.68,78.21-510.8,144.21&#xA;&#x9;&#x9;&#x9;&#x9;c-25.9,10.55-52.69,21.45-79.16,31.97c-9.17,3.64-18.53,7.4-28.07,11.23c-72.25,28.98-154.14,61.82-237.07,80.81&#xA;&#x9;&#x9;&#x9;&#x9;C3101.74,1233.01,3059.54,1238.29,3020.68,1238.29z"></path>
&#x9;&#x9;</g>
&#x9;&#x9;<g>
&#x9;&#x9;&#x9;<path d="M3025.62,1007.66c-44.12,0-84.04-6.01-120.52-18.04c-64.73-21.35-129.13-58.65-196.89-114.02&#xA;&#x9;&#x9;&#x9;&#x9;c-59.74-48.82-114.73-105.32-167.91-159.95c-22.35-22.96-43.47-44.66-64.93-65.84c-5.01-4.94-10.07-9.96-15.2-15.03&#xA;&#x9;&#x9;&#x9;&#x9;c-108.4-107.29-243.3-240.81-402.25-245.99c-151.84-4.96-318.58,72.55-452.56,134.82c-6.3,2.93-12.55,5.83-18.74,8.7&#xA;&#x9;&#x9;&#x9;&#x9;c-63.95,29.65-128.19,61.56-190.32,92.42c-97.62,48.49-198.56,98.62-300.96,141.29c-237.57,98.98-502.02,64.17-757.77,30.5&#xA;&#x9;&#x9;&#x9;&#x9;c-112.19-14.77-228.2-30.04-337.6-32.86c-2.21-0.06-3.95-1.89-3.9-4.1c0.06-2.21,1.88-3.95,4.1-3.9&#xA;&#x9;&#x9;&#x9;&#x9;c109.82,2.83,226.04,18.13,338.44,32.93c254.69,33.53,518.06,68.21,753.65-29.95c102.16-42.56,202.98-92.64,300.48-141.07&#xA;&#x9;&#x9;&#x9;&#x9;c62.17-30.88,126.46-62.82,190.51-92.51c6.19-2.87,12.43-5.77,18.73-8.7c67.67-31.45,144.36-67.1,221.86-93.6&#xA;&#x9;&#x9;&#x9;&#x9;c89.13-30.47,165.78-44.21,234.33-41.97c162.09,5.28,298.23,140.03,407.62,248.3c5.12,5.07,10.19,10.08,15.19,15.02&#xA;&#x9;&#x9;&#x9;&#x9;c21.53,21.24,42.67,42.96,65.05,65.95c107.62,110.56,218.89,224.89,361.58,271.96c145.44,47.98,322.43-12.6,464.64-61.29&#xA;&#x9;&#x9;&#x9;&#x9;c13.49-4.62,26.24-8.98,38.94-13.25c24.85-8.36,50.04-17,74.39-25.35c82.77-28.38,168.36-57.73,253.87-80.71&#xA;&#x9;&#x9;&#x9;&#x9;c95.9-25.78,181.92-40.74,262.97-45.75c2.17-0.12,4.1,1.54,4.24,3.75s-1.54,4.1-3.75,4.24&#xA;&#x9;&#x9;&#x9;&#x9;c-179.46,11.08-349.9,69.52-514.73,126.04c-24.37,8.35-49.56,16.99-74.43,25.36c-12.68,4.27-25.42,8.63-38.9,13.24&#xA;&#x9;&#x9;&#x9;&#x9;c-71.69,24.54-152.95,52.36-233.55,67.58C3099.73,1003.73,3061.3,1007.66,3025.62,1007.66z"></path>
&#x9;&#x9;</g>
&#x9;&#x9;<g>
&#x9;&#x9;&#x9;<path d="M3031.43,746.95c-41.63,0-82.68-3.84-122.49-13.04c-142.28-32.88-264.52-124.41-382.74-212.93&#xA;&#x9;&#x9;&#x9;&#x9;c-143.33-107.32-291.54-218.29-474.48-222c-224.72-4.55-449.16,84.83-666.21,171.27c-99.1,39.46-192.7,76.74-286.56,105.77&#xA;&#x9;&#x9;&#x9;&#x9;c-243.17,75.2-505.06,48.48-758.33,22.64C227.93,587.17,111.39,575.28,0,573.06c-2.21-0.04-3.96-1.87-3.92-4.08&#xA;&#x9;&#x9;&#x9;&#x9;c0.04-2.21,1.84-3.94,4.08-3.92c111.73,2.23,228.43,14.14,341.29,25.65c252.47,25.76,513.54,52.39,755.15-22.33&#xA;&#x9;&#x9;&#x9;&#x9;c93.56-28.93,187.02-66.15,285.97-105.56c217.79-86.73,443.01-176.44,669.33-171.84c83.3,1.69,166.49,25.28,254.34,72.12&#xA;&#x9;&#x9;&#x9;&#x9;c78.12,41.66,152.68,97.48,224.78,151.47c117.55,88.02,239.11,179.03,379.75,211.54c148.42,34.3,315.73-7.05,463.34-43.54&#xA;&#x9;&#x9;&#x9;&#x9;c12.94-3.2,26.32-6.51,39.24-9.65c22.84-5.56,46.01-11.28,68.41-16.82c168.32-41.59,342.36-84.6,520.77-91.05&#xA;&#x9;&#x9;&#x9;&#x9;c2.23-0.06,4.06,1.65,4.14,3.85s-1.65,4.06-3.85,4.14c-177.58,6.42-351.22,49.33-519.14,90.82&#xA;&#x9;&#x9;&#x9;&#x9;c-22.41,5.54-45.59,11.27-68.44,16.82c-12.91,3.14-26.28,6.44-39.21,9.64C3266.86,717.33,3146.97,746.95,3031.43,746.95z"></path>
&#x9;&#x9;</g>
&#x9;&#x9;<g>
&#x9;&#x9;&#x9;<path d="M3057.71,478.63c-48.11,0-96.13-2.23-143.96-7.37c-140.12-15.07-270.98-69.71-397.54-122.54&#xA;&#x9;&#x9;&#x9;&#x9;c-147.02-61.38-299.04-124.84-465.18-125.56c-2.15-0.01-4.32-0.01-6.46-0.01c-223.21,0-444.98,50.1-659.53,98.58&#xA;&#x9;&#x9;&#x9;&#x9;c-97.02,21.92-197.35,44.59-296.24,62.24c-247.43,44.17-501.68,28.67-747.56,13.67c-112-6.83-227.82-13.89-341.21-15.18&#xA;&#x9;&#x9;&#x9;&#x9;c-2.21-0.02-3.98-1.84-3.95-4.04c0.02-2.21,1.87-4,4.04-3.95c113.59,1.29,229.51,8.35,341.61,15.19&#xA;&#x9;&#x9;&#x9;&#x9;c245.41,14.96,499.17,30.44,745.67-13.56c98.71-17.62,198.95-40.27,295.88-62.17c214.97-48.57,437.2-98.78,661.29-98.78&#xA;&#x9;&#x9;&#x9;&#x9;c2.17,0,4.33,0,6.5,0.01c75.29,0.33,154.07,13.38,240.86,39.9c77.25,23.61,153.57,55.47,227.37,86.28&#xA;&#x9;&#x9;&#x9;&#x9;c126.03,52.61,256.36,107.02,395.32,121.97c205.01,22.05,414.31-9.85,616.72-40.7c154.54-23.56,314.34-47.92,471.33-48.16&#xA;&#x9;&#x9;&#x9;&#x9;c0,0,0,0,0.01,0c2.21,0,4,1.79,4,3.99c0,2.21-1.79,4-3.99,4.01c-156.39,0.24-315.89,24.56-470.14,48.07&#xA;&#x9;&#x9;&#x9;&#x9;C3376.72,454.25,3216.82,478.62,3057.71,478.63z"></path>
&#x9;&#x9;</g>
&#x9;&#x9;<g>
&#x9;&#x9;&#x9;<path d="M2970.96,220.98c-18.02,0-36.02-0.1-54-0.31c-143.19-1.65-286.38-23.04-424.85-43.71&#xA;&#x9;&#x9;&#x9;&#x9;c-144.19-21.53-293.21-43.79-442.52-43.79c-3.31,0-6.59,0.01-9.9,0.03c-226.52,1.51-455.01,19.53-675.97,36.95&#xA;&#x9;&#x9;&#x9;&#x9;c-94.76,7.47-192.74,15.2-289.46,21.54c-245.68,16.12-494.79,10.68-735.7,5.43c-110.89-2.42-225.55-4.92-338.53-5.29&#xA;&#x9;&#x9;&#x9;&#x9;c-2.21-0.01-3.99-1.8-3.99-4.01c0.01-2.2,1.8-3.99,4-3.99c0,0,0.01,0,0.01,0c113.05,0.37,227.75,2.88,338.67,5.29&#xA;&#x9;&#x9;&#x9;&#x9;c240.74,5.25,489.67,10.68,735.01-5.42c96.67-6.34,194.63-14.07,289.36-21.54c221.1-17.44,449.74-35.47,676.54-36.98&#xA;&#x9;&#x9;&#x9;&#x9;c153.27-1.03,305.97,21.79,453.66,43.84c138.21,20.64,281.12,41.98,423.76,43.63c176.05,2.03,354.8-6.45,527.67-14.65&#xA;&#x9;&#x9;&#x9;&#x9;c182.78-8.67,371.79-17.64,558.01-14.2c2.21,0.04,3.97,1.86,3.92,4.07c-0.04,2.21-1.86,3.96-4.07,3.93&#xA;&#x9;&#x9;&#x9;&#x9;c-185.95-3.43-374.83,5.53-557.48,14.2C3289.77,213.39,3129.66,220.98,2970.96,220.98z"></path>
&#x9;&#x9;</g>
&#x9;&#x9;<g>
&#x9;&#x9;&#x9;<path d="M3812.08,4003.84c-0.02,0-0.04,0-0.07,0c-2.21-0.03-3.97-1.85-3.94-4.06c3.1-193.98-4.68-391.3-12.2-582.12&#xA;&#x9;&#x9;&#x9;&#x9;c-5.87-148.88-11.93-302.84-12.8-454.3c-0.85-147.2,5.18-296.62,11.02-441.12c5.93-146.91,12.06-298.83,10.96-448.42&#xA;&#x9;&#x9;&#x9;&#x9;c-3.04-414.86-1.14-836.73,0.71-1244.72c1.23-272.66,2.51-554.61,2.29-831.87c0-2.21,1.79-4,4-4c2.21,0,4,1.79,4,4&#xA;&#x9;&#x9;&#x9;&#x9;c0.22,277.28-1.06,559.24-2.29,831.91c-1.84,407.96-3.75,829.81-0.71,1244.62c1.1,149.79-5.04,301.8-10.97,448.81&#xA;&#x9;&#x9;&#x9;&#x9;c-5.83,144.41-11.85,293.74-11.01,440.75c0.87,151.33,6.93,305.21,12.8,454.03c7.52,190.93,15.3,388.36,12.2,582.56&#xA;&#x9;&#x9;&#x9;&#x9;C3816.05,4002.09,3814.26,4003.84,3812.08,4003.84z"></path>
&#x9;&#x9;</g>
&#x9;&#x9;<g>
&#x9;&#x9;&#x9;<path d="M3621.47,4003.86c-2.21,0-4-1.79-4-3.99c-0.21-154.91-21-310.28-41.1-460.54c-21.87-163.5-44.49-332.56-40.76-501.84&#xA;&#x9;&#x9;&#x9;&#x9;c2.78-126.37,19.36-253.14,35.4-375.75c17.48-133.69,35.56-271.93,35.75-409.82c0.48-355.9,2.93-717.75,5.3-1067.68&#xA;&#x9;&#x9;&#x9;&#x9;c2.64-389.05,5.36-791.34,5.39-1187.01c0-2.21,1.79-4,4-4s4,1.79,4,4c-0.03,395.7-2.75,798-5.39,1187.06&#xA;&#x9;&#x9;&#x9;&#x9;c-2.37,349.92-4.82,711.76-5.3,1067.64c-0.19,138.41-18.3,276.91-35.82,410.85c-16.01,122.39-32.56,248.95-35.33,374.88&#xA;&#x9;&#x9;&#x9;&#x9;c-3.72,168.66,18.86,337.41,40.69,500.6c20.13,150.51,40.95,306.15,41.17,461.58&#xA;&#x9;&#x9;&#x9;&#x9;C3625.47,4002.06,3623.69,4003.85,3621.47,4003.86C3621.47,4003.86,3621.47,4003.86,3621.47,4003.86z"></path>
&#x9;&#x9;</g>
&#x9;&#x9;<g>
&#x9;&#x9;&#x9;<path d="M3430.84,4003.88c-2.15,0-3.92-1.7-4-3.87c-4.54-136.39-40.89-268.89-76.05-397.03&#xA;&#x9;&#x9;&#x9;&#x9;c-41.73-152.11-84.88-309.39-74.86-473.78c6.64-108.96,36.24-213.41,64.86-314.42c31.35-110.64,63.77-225.05,65.88-345.35&#xA;&#x9;&#x9;&#x9;&#x9;c12.53-714.68,18.75-1477.13,20.19-2472.19c0-2.21,1.79-3.99,4-3.99c0,0,0,0,0.01,0c2.21,0,4,1.8,3.99,4.01&#xA;&#x9;&#x9;&#x9;&#x9;c-1.44,995.1-7.66,1757.6-20.19,2472.32c-2.13,121.33-34.69,236.25-66.18,347.39c-28.5,100.6-57.98,204.63-64.57,312.72&#xA;&#x9;&#x9;&#x9;&#x9;c-9.94,163.06,33.04,319.69,74.59,471.17c35.28,128.59,71.76,261.55,76.33,398.88c0.07,2.21-1.66,4.06-3.87,4.13&#xA;&#x9;&#x9;&#x9;&#x9;C3430.93,4003.88,3430.89,4003.88,3430.84,4003.88z"></path>
&#x9;&#x9;</g>
&#x9;&#x9;<g>
&#x9;&#x9;&#x9;<path d="M3240.23,4003.9c-2.1,0-3.86-1.64-3.99-3.77c-7.45-127.02-58.38-243.33-107.63-355.8&#xA;&#x9;&#x9;&#x9;&#x9;c-29.68-67.78-60.37-137.86-81.01-209.25c-23.19-80.22-31.01-153.78-23.89-224.9c9.56-95.51,45.19-170.11,99.58-259.53&#xA;&#x9;&#x9;&#x9;&#x9;c54.99-90.41,81.01-179.15,84.38-287.72c24.73-798.4,26.4-1612.01,28.01-2398.84c0.18-88.97,0.37-177.91,0.58-266.82&#xA;&#x9;&#x9;&#x9;&#x9;c0-2.21,1.79-3.99,4-3.99c0,0,0.01,0,0.01,0c2.21,0.01,4,1.8,3.99,4.01c-0.21,88.91-0.4,177.86-0.58,266.82&#xA;&#x9;&#x9;&#x9;&#x9;c-1.61,786.88-3.28,1600.55-28.01,2399.07c-3.41,110.03-29.79,199.97-85.54,291.63c-53.8,88.46-89.04,162.17-98.45,256.17&#xA;&#x9;&#x9;&#x9;&#x9;c-15.65,156.29,45.31,295.51,104.26,430.15c49.53,113.12,100.75,230.1,108.29,358.54c0.13,2.21-1.55,4.1-3.76,4.23&#xA;&#x9;&#x9;&#x9;&#x9;C3240.38,4003.9,3240.31,4003.9,3240.23,4003.9z"></path>
&#x9;&#x9;</g>
&#x9;&#x9;<g>
&#x9;&#x9;&#x9;<path d="M3049.64,4003.89c-2.11,0-3.88-1.66-3.99-3.79c-6.67-128.62-67.09-236.62-125.52-341.06&#xA;&#x9;&#x9;&#x9;&#x9;c-34.19-61.11-69.55-124.3-93.41-190.58c-26.81-74.49-36.01-145.25-28.11-216.34c10.67-96.06,50.92-155.13,116.82-224.7&#xA;&#x9;&#x9;&#x9;&#x9;c65.85-69.51,94.01-144.4,97.22-258.49c26.99-959.47,31.18-1933.77,32.99-2771.67c0-2.21,1.79-3.99,4-3.99c0,0,0.01,0,0.01,0&#xA;&#x9;&#x9;&#x9;&#x9;c2.21,0,4,1.8,3.99,4.01c-1.81,837.96-6,1812.31-33,2771.88c-1.61,57.12-9.02,102.45-23.35,142.65&#xA;&#x9;&#x9;&#x9;&#x9;c-15.68,44.02-40.56,83.64-76.07,121.12c-64.73,68.33-104.25,126.25-114.68,220.08c-17.31,155.75,49.65,275.43,120.54,402.13&#xA;&#x9;&#x9;&#x9;&#x9;c58.88,105.24,119.76,214.06,126.53,344.55c0.12,2.21-1.58,4.09-3.79,4.2C3049.78,4003.88,3049.71,4003.89,3049.64,4003.89z"></path>
&#x9;&#x9;</g>
&#x9;&#x9;<g>
&#x9;&#x9;&#x9;<path d="M2859.07,4003.9c-2.15,0-3.93-1.71-4-3.88c-4.49-148.87-64.74-246.62-156.13-378.76&#xA;&#x9;&#x9;&#x9;&#x9;c-41.25-59.64-69.85-117.52-87.44-176.95c-18.9-63.88-24.78-128.27-17.96-196.85c11.11-111.79,67.59-190.71,134.73-275.06&#xA;&#x9;&#x9;&#x9;&#x9;c76.21-95.75,106.48-176.56,107.97-288.25c1.77-132.62,4.3-267.48,6.75-397.91c5.8-309.35,11.81-629.24,8.08-943.74&#xA;&#x9;&#x9;&#x9;&#x9;c-2.38-200.49,0.52-404.39,3.33-601.57c3.47-243.77,7.06-495.84,0.69-743.53c-0.06-2.21,1.69-4.04,3.9-4.1&#xA;&#x9;&#x9;&#x9;&#x9;c2.18-0.04,4.04,1.69,4.1,3.9c6.37,247.85,2.78,500-0.69,743.85c-2.81,197.13-5.71,400.98-3.33,601.36&#xA;&#x9;&#x9;&#x9;&#x9;c3.73,314.63-2.27,634.57-8.08,943.99c-2.45,130.42-4.98,265.27-6.74,397.87c-0.79,59.2-9.73,109.01-28.14,156.76&#xA;&#x9;&#x9;&#x9;&#x9;c-17.29,44.84-43.21,88.18-81.57,136.37c-66.34,83.34-122.13,161.25-133.03,270.87c-12.93,130.08,20.13,247.16,104.02,368.46&#xA;&#x9;&#x9;&#x9;&#x9;c43.05,62.25,80.97,118.7,108.93,179.13c30.99,66.98,46.44,131.79,48.62,203.94c0.07,2.21-1.67,4.05-3.88,4.12&#xA;&#x9;&#x9;&#x9;&#x9;C2859.15,4003.9,2859.11,4003.9,2859.07,4003.9z"></path>
&#x9;&#x9;</g>
&#x9;&#x9;<g>
&#x9;&#x9;&#x9;<path d="M2668.46,4003.92c-2.13,0-3.91-1.68-3.99-3.84c-6.46-157.24-83.54-263.16-172.79-385.81l-8.97-12.33&#xA;&#x9;&#x9;&#x9;&#x9;c-47.24-65.01-79.66-125.85-99.09-186.01c-21.81-67.49-28.21-136.04-19.57-209.58c17.42-148.33,92.72-276.87,165.54-401.17&#xA;&#x9;&#x9;&#x9;&#x9;c80.09-136.71,162.91-278.08,166.6-444.52c9.7-436.98,11.87-803.43-9.09-1171.47c-10.46-183.64-9.33-370.67-8.24-551.54&#xA;&#x9;&#x9;&#x9;&#x9;c1.26-210.1,2.57-427.36-14.3-640.09c-0.17-2.2,1.47-4.13,3.67-4.3c2.21-0.18,4.13,1.47,4.3,3.67&#xA;&#x9;&#x9;&#x9;&#x9;c16.9,213.07,15.59,430.5,14.33,640.77c-1.09,180.75-2.21,367.65,8.23,551.04c20.97,368.3,18.8,734.92,9.1,1172.1&#xA;&#x9;&#x9;&#x9;&#x9;c-1.68,75.66-19.54,152.57-54.6,235.12c-31.19,73.45-72.83,144.53-113.1,213.26c-72.4,123.59-147.27,251.39-164.5,398.06&#xA;&#x9;&#x9;&#x9;&#x9;c-15.99,136.16,20.15,256.42,117.19,389.95l8.96,12.32c90.01,123.7,167.75,230.53,174.32,390.19c0.09,2.21-1.62,4.07-3.83,4.16&#xA;&#x9;&#x9;&#x9;&#x9;C2668.57,4003.92,2668.52,4003.92,2668.46,4003.92z"></path>
&#x9;&#x9;</g>
&#x9;&#x9;<g>
&#x9;&#x9;&#x9;<path d="M2477.84,4003.92c-2.09,0-3.85-1.62-3.99-3.73c-10.17-151.93-96.41-271.11-179.81-386.36&#xA;&#x9;&#x9;&#x9;&#x9;c-49.65-68.62-101-139.57-135.06-216.17c-18.38-41.33-30.44-81-36.86-121.3c-7.21-45.22-7.21-90.06,0.01-137.09&#xA;&#x9;&#x9;&#x9;&#x9;c30.31-197.39,122.71-381.88,212.07-560.29c12.08-24.11,24.56-49.04,36.58-73.39c7.93-16.06,16.14-32.54,24.08-48.48&#xA;&#x9;&#x9;&#x9;&#x9;c84.63-169.8,172.13-345.39,178.83-533.34c11.25-316.17-3.21-643.14-41.81-945.55c-17.44-136.58-35.17-298.66-34.51-465.22&#xA;&#x9;&#x9;&#x9;&#x9;c0.04-10.84,0.09-21.68,0.15-32.51c0.75-158.38,1.52-322.15-23.46-482.71c-0.34-2.18,1.16-4.23,3.34-4.57&#xA;&#x9;&#x9;&#x9;&#x9;c2.18-0.34,4.23,1.16,4.57,3.34c25.07,161.19,24.3,325.28,23.55,483.97c-0.05,10.83-0.1,21.66-0.15,32.5&#xA;&#x9;&#x9;&#x9;&#x9;c-0.66,166.09,17.04,327.85,34.44,464.17c19.55,153.15,33,312.13,39.98,472.52c6.85,157.56,7.49,317.15,1.89,474.33&#xA;&#x9;&#x9;&#x9;&#x9;c-3.02,84.93-22.99,175.42-61.03,276.63c-33.59,89.36-76.82,176.1-118.63,259.99c-7.94,15.93-16.15,32.4-24.07,48.45&#xA;&#x9;&#x9;&#x9;&#x9;c-12.02,24.37-24.52,49.31-36.6,73.43c-89.08,177.86-181.19,361.78-211.31,557.93c-29.52,192.26,67.63,326.52,170.48,468.66&#xA;&#x9;&#x9;&#x9;&#x9;c84.06,116.17,170.98,236.29,181.31,390.52c0.15,2.21-1.52,4.11-3.72,4.26C2478.02,4003.92,2477.93,4003.92,2477.84,4003.92z"></path>
&#x9;&#x9;</g>
&#x9;&#x9;<g>
&#x9;&#x9;&#x9;<path d="M2287.23,4003.91c-2.05,0-3.79-1.57-3.98-3.65c-14.42-162.81-111.81-291.45-205.99-415.86&#xA;&#x9;&#x9;&#x9;&#x9;c-57.46-75.9-116.87-154.38-155.78-239.05c-20.99-45.68-34.56-89.55-41.5-134.11c-7.78-50-7.07-99.61,2.18-151.65&#xA;&#x9;&#x9;&#x9;&#x9;c43.28-243.72,151.41-476.4,255.98-701.42c18.24-39.25,37.1-79.84,55.12-119.46c16.66-36.63,33.96-73.24,52.29-112&#xA;&#x9;&#x9;&#x9;&#x9;c91.06-192.63,194.28-410.97,203.1-623.6c9.22-222.21-15.41-466.96-73.22-727.45c-30.47-137.29-51.13-254.81-52.94-382.15&#xA;&#x9;&#x9;&#x9;&#x9;c-1.97-138.56-6.25-263.96-38.9-395.46c-0.53-2.14,0.77-4.31,2.92-4.85c2.14-0.53,4.31,0.77,4.85,2.92&#xA;&#x9;&#x9;&#x9;&#x9;c32.85,132.32,37.16,258.2,39.13,397.27c1.8,126.66,22.39,243.72,52.75,380.53c57.96,261.16,82.66,506.61,73.41,729.51&#xA;&#x9;&#x9;&#x9;&#x9;c-3.98,95.84-26.98,200.45-70.31,319.8c-38.17,105.11-86.66,207.69-133.55,306.88c-18.31,38.73-35.61,75.32-52.24,111.89&#xA;&#x9;&#x9;&#x9;&#x9;c-18.03,39.64-36.9,80.25-55.15,119.52c-104.35,224.56-212.26,456.76-255.36,699.45c-37.81,212.91,74.6,361.39,193.6,518.59&#xA;&#x9;&#x9;&#x9;&#x9;c94.86,125.31,192.96,254.88,207.58,419.98c0.19,2.2-1.43,4.14-3.63,4.34C2287.46,4003.9,2287.34,4003.91,2287.23,4003.91z"></path>
&#x9;&#x9;</g>
&#x9;&#x9;<g>
&#x9;&#x9;&#x9;<path d="M2096.63,4003.89c-2.05,0-3.8-1.57-3.98-3.65c-15.52-176.67-121.33-315.67-223.66-450.09&#xA;&#x9;&#x9;&#x9;&#x9;c-19.21-25.23-39.07-51.32-58.01-77.24c-53.73-73.53-107.68-153.56-138.3-240.47c-15.35-43.57-23.84-85.66-25.94-128.67&#xA;&#x9;&#x9;&#x9;&#x9;c-2.28-46.63,2.96-93.05,16.03-141.9c38.84-145.18,88.96-294.82,153.21-457.48c57.38-145.26,120.88-288.22,182.28-426.47&#xA;&#x9;&#x9;&#x9;&#x9;c12.55-28.26,25.53-57.48,38.28-86.33c19.29-43.64,39.81-87.6,61.53-134.13c91.53-196.09,195.26-418.34,203.71-631.55&#xA;&#x9;&#x9;&#x9;&#x9;c8.3-209.51-41.6-405.74-91.51-570.06c-35.09-115.53-64.46-220.43-68.42-334.39c-4.02-115.71-13.85-214.95-48.74-323.14&#xA;&#x9;&#x9;&#x9;&#x9;c-0.68-2.1,0.48-4.36,2.58-5.03s4.36,0.48,5.03,2.58c35.17,109.07,45.08,208.93,49.12,325.32c3.93,113,33.16,217.37,68.08,332.34&#xA;&#x9;&#x9;&#x9;&#x9;c33.2,109.3,55.54,198.99,70.3,282.25c18.18,102.54,25.23,197.54,21.55,290.45c-3.81,96.09-26.81,201.65-70.32,322.71&#xA;&#x9;&#x9;&#x9;&#x9;c-38.31,106.6-87.03,210.97-134.14,311.91c-21.7,46.5-42.2,90.41-61.46,133.98c-12.76,28.86-25.74,58.08-38.29,86.34&#xA;&#x9;&#x9;&#x9;&#x9;c-127.9,287.97-248.71,559.97-335.07,882.77c-54.83,204.96,38.22,355.48,146.94,504.26c18.89,25.85,38.73,51.91,57.91,77.11&#xA;&#x9;&#x9;&#x9;&#x9;c51.37,67.48,104.49,137.26,145.76,211.21c46.44,83.2,72.45,162.7,79.5,243.03c0.19,2.2-1.43,4.14-3.63,4.33&#xA;&#x9;&#x9;&#x9;&#x9;C2096.86,4003.88,2096.75,4003.89,2096.63,4003.89z"></path>
&#x9;&#x9;</g>
&#x9;&#x9;<g>
&#x9;&#x9;&#x9;<path d="M1906.02,4003.87c-2.05,0-3.79-1.57-3.98-3.65c-16.01-180.47-119.27-335.23-219.12-484.88&#xA;&#x9;&#x9;&#x9;&#x9;c-63.16-94.66-128.46-192.53-169.97-295.03c-22.38-55.27-36.31-107.54-42.58-159.78c-7.04-58.64-4.33-115.76,8.27-174.65&#xA;&#x9;&#x9;&#x9;&#x9;c56.58-264.28,173.23-519.53,286.03-766.38c27.85-60.93,56.64-123.94,83.73-185.43l4.84-10.98&#xA;&#x9;&#x9;&#x9;&#x9;c55.43-125.79,112.74-255.86,162.81-386.27c2.47-6.43,4.96-12.9,7.47-19.4c39.01-101.21,83.22-215.93,88.45-326.78&#xA;&#x9;&#x9;&#x9;&#x9;c8.49-179.83-36.89-341.14-84.94-511.92c-2.78-9.87-5.56-19.77-8.34-29.7c-28.75-102.6-41.23-208.16-53.31-310.24&#xA;&#x9;&#x9;&#x9;&#x9;c-13.32-112.64-27.1-229.12-62.87-340.46c-0.68-2.1,0.48-4.36,2.58-5.03c2.1-0.68,4.36,0.48,5.03,2.58&#xA;&#x9;&#x9;&#x9;&#x9;c36,112.08,49.83,228.95,63.2,341.97c12.04,101.78,24.49,207.02,53.06,309.02c2.78,9.92,5.56,19.82,8.34,29.69&#xA;&#x9;&#x9;&#x9;&#x9;c48.23,171.42,93.78,333.34,85.23,514.47c-5.29,112.14-49.75,227.5-88.98,329.28c-2.5,6.5-5,12.96-7.46,19.39&#xA;&#x9;&#x9;&#x9;&#x9;c-50.14,130.59-107.5,260.75-162.96,386.63l-4.84,10.98c-27.11,61.54-55.92,124.57-83.77,185.53&#xA;&#x9;&#x9;&#x9;&#x9;c-112.63,246.46-229.09,501.31-285.48,764.73c-51.69,241.46,72.08,426.95,203.11,623.35c50.02,74.97,101.75,152.5,142.12,232.72&#xA;&#x9;&#x9;&#x9;&#x9;c45.44,90.29,71.05,174,78.32,255.9c0.2,2.2-1.43,4.14-3.63,4.34C1906.26,4003.86,1906.14,4003.87,1906.02,4003.87z"></path>
&#x9;&#x9;</g>
&#x9;&#x9;<g>
&#x9;&#x9;&#x9;<path d="M1715.42,4003.85c-2.06,0-3.82-1.59-3.98-3.68c-15.32-191.6-103.36-364.96-188.51-532.61&#xA;&#x9;&#x9;&#x9;&#x9;c-14.37-28.29-29.23-57.55-43.45-86.35c-41.36-83.74-88.25-178.66-118.08-277c-32.7-107.82-39.83-204.93-21.78-296.91&#xA;&#x9;&#x9;&#x9;&#x9;c46.94-239.17,144.05-471.4,237.96-695.98c19.23-45.98,39.11-93.53,58.08-140.02c19.22-47.1,40.13-94.91,62.27-145.53&#xA;&#x9;&#x9;&#x9;&#x9;c81.5-186.3,173.88-397.46,182.45-595.37c5.91-136.48-22.46-270.56-49.89-400.23c-9.14-43.21-18.59-87.9-26.67-132.12&#xA;&#x9;&#x9;&#x9;&#x9;c-18.23-99.81-26.68-201.67-34.84-300.18c-10.93-131.78-22.23-268.06-57.17-399.77c-0.57-2.14,0.71-4.33,2.84-4.89&#xA;&#x9;&#x9;&#x9;&#x9;c2.13-0.57,4.33,0.7,4.89,2.84c35.13,132.4,46.46,269.03,57.41,401.16c8.15,98.31,16.58,199.98,34.74,299.4&#xA;&#x9;&#x9;&#x9;&#x9;c8.06,44.11,17.5,88.74,26.63,131.9c27.53,130.15,56.01,264.74,50.05,402.23c-3.86,89.2-24.64,188.13-63.52,302.46&#xA;&#x9;&#x9;&#x9;&#x9;c-34.24,100.68-77.63,199.86-119.59,295.77c-22.12,50.57-43.02,98.33-62.2,145.34c-18.98,46.52-38.87,94.09-58.1,140.08&#xA;&#x9;&#x9;&#x9;&#x9;c-93.76,224.21-190.71,456.06-237.49,694.43c-40.32,205.43,55.04,398.49,139.18,568.83c14.2,28.75,29.05,57.99,43.41,86.27&#xA;&#x9;&#x9;&#x9;&#x9;c85.5,168.34,173.9,342.41,189.35,535.59c0.18,2.2-1.47,4.13-3.67,4.31C1715.63,4003.85,1715.52,4003.85,1715.42,4003.85z"></path>
&#x9;&#x9;</g>
&#x9;&#x9;<g>
&#x9;&#x9;&#x9;<path d="M1524.84,4003.83c-2.12,0-3.89-1.67-3.99-3.82c-9.27-201.12-78.89-393.63-146.22-579.8&#xA;&#x9;&#x9;&#x9;&#x9;c-12.01-33.21-24.43-67.54-36.27-101.29l-3.79-10.79c-33.5-95.45-68.15-194.15-90.4-294.44&#xA;&#x9;&#x9;&#x9;&#x9;c-25.19-113.55-30.54-213.54-16.35-305.68c32.62-211.92,105.27-419.91,175.52-621.05c13.58-38.89,27.63-79.11,41.08-118.49&#xA;&#x9;&#x9;&#x9;&#x9;c13.25-38.81,27.16-77.5,41.89-118.46c64.8-180.21,131.8-366.56,136.64-550.34c2.71-102.83-10.08-207.02-22.45-307.77&#xA;&#x9;&#x9;&#x9;&#x9;c-7.97-64.91-16.21-132.03-20.23-198.17c-4.74-77.92-7.51-156.4-10.19-232.28c-6.51-184.37-13.24-375.02-49.01-563.59&#xA;&#x9;&#x9;&#x9;&#x9;c-0.41-2.17,1.01-4.26,3.18-4.68c2.17-0.41,4.26,1.01,4.68,3.18c35.88,189.16,42.62,380.12,49.14,564.8&#xA;&#x9;&#x9;&#x9;&#x9;c2.68,75.84,5.45,154.26,10.18,232.08c4.01,65.89,12.23,132.89,20.18,197.68c12.4,101.04,25.23,205.52,22.51,308.95&#xA;&#x9;&#x9;&#x9;&#x9;c-4.87,185.06-72.09,372.03-137.1,552.83c-14.72,40.93-28.62,79.59-41.85,118.33c-13.46,39.41-27.51,79.64-41.1,118.55&#xA;&#x9;&#x9;&#x9;&#x9;c-70.13,200.8-142.65,408.44-175.16,619.63c-31.37,203.78,38.66,403.3,106.39,596.26l3.79,10.79&#xA;&#x9;&#x9;&#x9;&#x9;c11.83,33.71,24.24,68.03,36.24,101.22c67.53,186.73,137.36,379.82,146.69,582.15c0.1,2.21-1.6,4.08-3.81,4.18&#xA;&#x9;&#x9;&#x9;&#x9;C1524.97,4003.82,1524.9,4003.83,1524.84,4003.83z"></path>
&#x9;&#x9;</g>
&#x9;&#x9;<g>
&#x9;&#x9;&#x9;<path d="M1334.27,4003.81c-2.19,0-3.97-1.76-4-3.95c-2.77-211.94-56.82-422.55-109.1-626.23&#xA;&#x9;&#x9;&#x9;&#x9;c-31.26-121.83-63.59-247.8-84.59-372.68c-23.57-140.19-30.04-264.15-19.77-378.97c16.76-187.49,66.28-374.34,114.16-555.03&#xA;&#x9;&#x9;&#x9;&#x9;c58.21-219.66,118.4-446.8,119.8-676.01c0.35-56.89-1.09-114.12-2.48-169.46c-2.57-102.17-5.23-207.82,3.44-313.46&#xA;&#x9;&#x9;&#x9;&#x9;c23.66-288.39,16.88-577.67-21.36-910.39c-0.25-2.2,1.32-4.18,3.52-4.43c2.19-0.25,4.18,1.32,4.43,3.52&#xA;&#x9;&#x9;&#x9;&#x9;c38.3,333.26,45.09,623.04,21.38,911.96c-8.63,105.21-5.98,210.65-3.42,312.61c1.39,55.4,2.84,112.69,2.49,169.71&#xA;&#x9;&#x9;&#x9;&#x9;c-1.41,230.23-61.73,457.87-120.07,678.01c-47.8,180.37-97.22,366.88-113.92,553.69c-22.75,254.5,41.75,505.86,104.14,748.95&#xA;&#x9;&#x9;&#x9;&#x9;c52.39,204.13,106.56,415.22,109.35,628.11c0.03,2.21-1.74,4.02-3.95,4.05C1334.3,4003.81,1334.28,4003.81,1334.27,4003.81z"></path>
&#x9;&#x9;</g>
&#x9;&#x9;<g>
&#x9;&#x9;&#x9;<path d="M1143.67,4003.83c-2.21,0-4-1.79-4-3.99c-0.41-231.35-39.81-463.16-77.92-687.34c-41.36-243.31-84.13-494.9-77.31-747.03&#xA;&#x9;&#x9;&#x9;&#x9;c4.5-166.44,25.27-334.35,45.36-496.72c23.16-187.23,47.11-380.84,46.16-572.89c-0.91-184.61,13.07-322.02,48.25-474.29&#xA;&#x9;&#x9;&#x9;&#x9;c64.39-278.63,46.43-546.89,27.41-830.9c-4.23-63.13-8.6-128.41-11.93-193.22c-0.11-2.21,1.58-4.09,3.79-4.2&#xA;&#x9;&#x9;&#x9;&#x9;c2.22-0.12,4.09,1.58,4.2,3.79c3.33,64.75,7.7,130,11.93,193.1c9.15,136.68,18.61,278,17.46,416.36&#xA;&#x9;&#x9;&#x9;&#x9;c-1.29,154.86-16.03,291.22-45.06,416.87c-35.04,151.63-48.96,288.5-48.05,472.45c0.95,192.56-23.03,386.43-46.22,573.92&#xA;&#x9;&#x9;&#x9;&#x9;c-20.06,162.19-40.81,329.9-45.3,495.96c-6.8,251.35,35.9,502.54,77.2,745.47c38.16,224.51,77.63,456.66,78.03,688.67&#xA;&#x9;&#x9;&#x9;&#x9;C1147.67,4002.03,1145.89,4003.83,1143.67,4003.83C1143.67,4003.83,1143.67,4003.83,1143.67,4003.83z"></path>
&#x9;&#x9;</g>
&#x9;&#x9;<g>
&#x9;&#x9;&#x9;<path d="M953.03,4003.86c-2.16,0-3.94-1.73-4-3.9c-5.65-225.54-37.58-453.14-68.46-673.25&#xA;&#x9;&#x9;&#x9;&#x9;c-35.33-251.86-71.87-512.29-69.26-771.09c1.54-152.42,5.85-307.31,10.03-457.1c4.57-164,9.29-333.58,10.39-500.42&#xA;&#x9;&#x9;&#x9;&#x9;c0.11-16.08,0.06-32.58,0.01-48.54c-0.21-72.72-0.44-147.92,13.36-219.78c10.15-52.86,28.59-104.78,46.43-154.98&#xA;&#x9;&#x9;&#x9;&#x9;c7.59-21.36,15.44-43.45,22.47-65.16c86.07-265.55,67.7-542.03,49.93-809.4c-6.6-99.25-13.42-201.88-14.89-302.92&#xA;&#x9;&#x9;&#x9;&#x9;c-0.03-2.21,1.73-4.03,3.94-4.06c2.2-0.04,4.03,1.73,4.06,3.94c1.47,100.83,8.28,203.35,14.87,302.5&#xA;&#x9;&#x9;&#x9;&#x9;c8.91,134.12,18.13,272.81,14.12,408.32c-4.5,152.05-25.57,284.23-64.42,404.07c-7.07,21.82-14.94,43.96-22.54,65.38&#xA;&#x9;&#x9;&#x9;&#x9;c-17.73,49.92-36.07,101.55-46.11,153.81c-13.65,71.1-13.43,145.9-13.22,218.24c0.05,15.98,0.1,32.5-0.01,48.62&#xA;&#x9;&#x9;&#x9;&#x9;c-1.1,166.93-5.82,336.55-10.39,500.59c-4.17,149.75-8.48,304.61-10.02,456.95c-2.61,258.2,33.88,518.33,69.18,769.9&#xA;&#x9;&#x9;&#x9;&#x9;c30.91,220.33,62.87,448.16,68.54,674.16c0.05,2.21-1.69,4.04-3.9,4.1C953.1,4003.86,953.07,4003.86,953.03,4003.86z"></path>
&#x9;&#x9;</g>
&#x9;&#x9;<g>
&#x9;&#x9;&#x9;<path d="M762.42,4003.84c-2.16,0-3.94-1.72-4-3.89c-5.89-211.16-32.72-424.87-58.68-631.53c-31.14-248-63.34-504.44-59.61-758.46&#xA;&#x9;&#x9;&#x9;&#x9;c2.21-150.66,7.4-303.74,12.42-451.79c5.17-152.7,10.53-310.59,12.61-465.95c2.69-200.05,24.61-369.65,71.07-549.91&#xA;&#x9;&#x9;&#x9;&#x9;c70.54-273.63,53.3-557.94,36.63-832.89c-6.21-102.39-12.63-208.26-14.42-312.05c-0.04-2.21,1.72-4.03,3.93-4.07&#xA;&#x9;&#x9;&#x9;&#x9;c2.22-0.05,4.03,1.72,4.07,3.93c1.79,103.62,8.2,209.4,14.4,311.7c8.35,137.67,16.98,280.02,14.51,419.46&#xA;&#x9;&#x9;&#x9;&#x9;c-2.78,156.54-19.58,292.59-51.37,415.91c-46.3,179.62-68.14,348.64-70.82,548.02c-2.09,155.44-7.44,313.37-12.62,466.11&#xA;&#x9;&#x9;&#x9;&#x9;c-5.02,148.01-10.2,301.06-12.41,451.63c-3.72,253.46,28.45,509.62,59.55,757.34c25.97,206.86,52.83,420.76,58.73,632.31&#xA;&#x9;&#x9;&#x9;&#x9;c0.06,2.21-1.68,4.05-3.89,4.11C762.5,4003.83,762.46,4003.84,762.42,4003.84z"></path>
&#x9;&#x9;</g>
&#x9;&#x9;<g>
&#x9;&#x9;&#x9;<path d="M571.83,4003.86c-2.18,0-3.96-1.75-4-3.93c-3.34-198.54-22.84-399.72-41.69-594.28&#xA;&#x9;&#x9;&#x9;&#x9;c-22.18-228.94-45.12-465.68-41.91-699.73c1.93-141.01,6.06-284.33,10.06-422.92c4.58-159.03,9.32-323.47,10.77-485.25&#xA;&#x9;&#x9;&#x9;&#x9;c1.7-191.15,8.93-418.57,49.6-655.97c47.98-280.06,35.59-565.08,23.61-840.71c-4.32-99.42-8.79-202.22-10.41-303.7&#xA;&#x9;&#x9;&#x9;&#x9;c-0.04-2.21,1.73-4.03,3.94-4.06c2.22-0.08,4.03,1.73,4.06,3.94c1.62,101.37,6.08,204.12,10.4,303.48&#xA;&#x9;&#x9;&#x9;&#x9;c6,138.14,12.21,280.98,10.78,421.27c-1.61,157.33-12.89,295.09-34.49,421.14c-40.58,236.85-47.78,463.86-49.48,654.69&#xA;&#x9;&#x9;&#x9;&#x9;c-1.44,161.86-6.18,326.34-10.77,485.41c-3.99,138.57-8.12,281.85-10.06,422.8c-3.2,233.61,19.72,470.12,41.88,698.85&#xA;&#x9;&#x9;&#x9;&#x9;c18.87,194.71,38.37,396.05,41.73,594.91c0.04,2.21-1.72,4.03-3.93,4.07C571.88,4003.86,571.85,4003.86,571.83,4003.86z"></path>
&#x9;&#x9;</g>
&#x9;&#x9;<g>
&#x9;&#x9;&#x9;<path d="M381.25,4003.89c-2.21,0-4-1.79-4-4c-0.14-190.57-11.51-383.97-22.51-571.01c-11.86-201.78-24.13-410.42-22.35-616.22&#xA;&#x9;&#x9;&#x9;&#x9;c1.12-129.64,3.5-261.43,5.8-388.89c3.12-172.9,6.34-351.68,6.47-527.52c0.18-238.37,0.38-508.55,25.5-773.96&#xA;&#x9;&#x9;&#x9;&#x9;c26.77-282.82,19.68-568.73,12.81-845.23c-2.27-91.55-4.62-186.21-5.73-279.74c-0.03-2.21,1.74-4.02,3.95-4.05&#xA;&#x9;&#x9;&#x9;&#x9;c0.02,0,0.03,0,0.05,0c2.19,0,3.97,1.76,4,3.95c1.11,93.47,3.46,188.11,5.73,279.64c6.87,276.74,13.97,562.89-12.85,846.19&#xA;&#x9;&#x9;&#x9;&#x9;c-25.09,265.04-25.29,535.02-25.47,773.22c-0.13,175.9-3.36,354.72-6.48,527.66c-2.3,127.44-4.67,259.22-5.79,388.82&#xA;&#x9;&#x9;&#x9;&#x9;c-1.78,205.53,10.48,414.04,22.34,615.68c11,187.15,22.38,380.67,22.52,571.47C385.25,4002.1,383.46,4003.89,381.25,4003.89z"></path>
&#x9;&#x9;</g>
&#x9;&#x9;<g>
&#x9;&#x9;&#x9;<path d="M190.65,4003.91c-0.01,0-0.03,0-0.04,0c-2.21-0.02-3.98-1.83-3.96-4.04c1.81-196.05-2.37-395.39-6.42-588.17&#xA;&#x9;&#x9;&#x9;&#x9;c-3.52-167.9-7.17-341.52-6.84-512.33c0.24-124.94,1.14-251.98,2.01-374.83c1.29-181.98,2.62-370.15,1.83-555.2&#xA;&#x9;&#x9;&#x9;&#x9;c-0.15-35.78-0.33-71.55-0.52-107.32c-1.27-250.31-2.59-509.14,6.94-763.8c10.71-286.22,7.85-576.56,5.08-857.34&#xA;&#x9;&#x9;&#x9;&#x9;c-0.79-79.8-1.6-162.31-2.09-243.59c-0.01-2.21,1.77-4.01,3.98-4.02c0.01,0,0.02,0,0.02,0c2.2,0,3.99,1.77,4,3.98&#xA;&#x9;&#x9;&#x9;&#x9;c0.49,81.26,1.31,163.77,2.09,243.56c2.77,280.87,5.63,571.31-5.08,857.72c-9.52,254.5-8.21,513.24-6.94,763.46&#xA;&#x9;&#x9;&#x9;&#x9;c0.18,35.77,0.36,71.55,0.52,107.33c0.79,185.1-0.54,373.29-1.83,555.29c-0.87,122.84-1.77,249.87-2.01,374.79&#xA;&#x9;&#x9;&#x9;&#x9;c-0.33,170.73,3.32,344.3,6.84,512.15c4.05,192.84,8.23,392.24,6.42,588.41C194.63,4002.14,192.84,4003.91,190.65,4003.91z"></path>
&#x9;&#x9;</g>
&#x9;</g>
</g>
</svg>